<svg preserveAspectRatio="none" width="100%" height="100%" overflow="visible" style="display: block;" viewBox="0 0 25.0812 25.0812" fill="none" xmlns="http://www.w3.org/2000/svg">
<g id="Maintenance--Streamline-Cyber 2" clip-path="url(#clip0_1767_12607)">
<path id="Vector" d="M23.5138 7.83873H0.522711V15.1541H23.5138V7.83873Z" stroke="currentColor" stroke-width="1.04505" stroke-miterlimit="10" stroke-linecap="round" stroke-linejoin="round"/>
<path id="Vector_2" d="M4.70292 15.1542V24.5596" stroke="currentColor" stroke-width="1.04505" stroke-miterlimit="10" stroke-linecap="round" stroke-linejoin="round"/>
<path id="Vector_3" d="M2.61281 24.5595H6.79302" stroke="currentColor" stroke-width="1.04505" stroke-miterlimit="10" stroke-linecap="round" stroke-linejoin="round"/>
<path id="Vector_4" d="M19.3336 15.1542V24.5596" stroke="currentColor" stroke-width="1.04505" stroke-miterlimit="10" stroke-linecap="round" stroke-linejoin="round"/>
<path id="Vector_5" d="M21.4237 24.5595H17.2435" stroke="currentColor" stroke-width="1.04505" stroke-miterlimit="10" stroke-linecap="round" stroke-linejoin="round"/>
<path id="Vector_6" d="M0.522711 15.1541L7.83807 7.83873" stroke="currentColor" stroke-width="1.04505" stroke-miterlimit="10" stroke-linecap="round" stroke-linejoin="round"/>
<path id="Vector_7" d="M5.74797 15.1541L13.0633 7.83873" stroke="currentColor" stroke-width="1.04505" stroke-miterlimit="10" stroke-linecap="round" stroke-linejoin="round"/>
<path id="Vector_8" d="M10.9732 15.1541L18.2886 7.83873" stroke="currentColor" stroke-width="1.04505" stroke-miterlimit="10" stroke-linecap="round" stroke-linejoin="round"/>
<path id="Vector_9" d="M16.1985 15.1541L23.5138 7.83873" stroke="currentColor" stroke-width="1.04505" stroke-miterlimit="10" stroke-linecap="round" stroke-linejoin="round"/>
<path id="Vector_10" d="M6.79302 5.22552L4.70292 6.79309L2.61281 5.22552V3.13542L4.70292 1.56784L6.79302 3.13542V5.22552Z" stroke="currentColor" stroke-width="1.04505" stroke-miterlimit="10" stroke-linecap="round" stroke-linejoin="round"/>
<path id="Vector_11" d="M21.4237 5.22552L19.3336 6.79309L17.2435 5.22552V3.13542L19.3336 1.56784L21.4237 3.13542V5.22552Z" stroke="currentColor" stroke-width="1.04505" stroke-miterlimit="10" stroke-linecap="round" stroke-linejoin="round"/>
</g>
<defs>
<clipPath id="clip0_1767_12607">
<rect width="25.0812" height="25.0812" fill="white"/>
</clipPath>
</defs>
</svg>
