<svg preserveAspectRatio="none" width="100%" height="100%" overflow="visible" style="display: block;" viewBox="0 0 32 32" fill="none" xmlns="http://www.w3.org/2000/svg">
<g id="Whatsapp-Icon Streamline Svg-Logos" clip-path="url(#clip0_0_4)">
<path id="Vector" d="M1.06868 15.8636C1.06789 18.505 1.75807 21.0841 3.07037 23.3572L0.943125 31.1242L8.8916 29.0401C11.0814 30.2336 13.5471 30.8636 16.0564 30.8643H16.063C24.3263 30.8643 31.0528 24.1401 31.0562 15.8755C31.0578 11.8705 29.4996 8.10471 26.6686 5.27147C23.8381 2.43841 20.0735 0.877365 16.0624 0.875625C7.7982 0.875625 1.07216 7.59931 1.06868 15.8636Z" fill="url(#paint0_linear_0_4)"/>
<path id="Vector_2" d="M0.533582 15.8591C0.532635 18.5955 1.24761 21.2668 2.60665 23.6213L0.403125 31.6668L8.63667 29.5079C10.9053 30.7449 13.4594 31.397 16.0586 31.398H16.0652C24.6249 31.398 31.5931 24.432 31.5967 15.8715C31.5981 11.7227 29.9838 7.82154 27.0517 4.88674C24.1192 1.95229 20.2199 0.335174 16.0652 0.333438C7.50394 0.333438 0.537055 7.29827 0.533582 15.8591ZM5.43674 23.2159L5.12937 22.7279C3.83697 20.673 3.15485 18.2984 3.1558 15.86C3.15864 8.74467 8.9494 2.95581 16.0701 2.95581C19.5183 2.95724 22.7592 4.30144 25.1966 6.74044C27.6341 9.1796 28.9753 12.422 28.9743 15.8706C28.9711 22.9861 23.1802 28.7757 16.0652 28.7757H16.0602C13.7434 28.7745 11.4713 28.1524 9.4897 26.9767L9.0181 26.697L4.13217 27.978L5.43674 23.2159Z" fill="url(#paint1_linear_0_4)"/>
<path id="Vector_3" d="M12.1833 9.36839C11.8925 8.72209 11.5866 8.70916 11.3101 8.69779C11.0838 8.68816 10.8249 8.68876 10.5664 8.68876C10.3075 8.68876 9.88706 8.78606 9.53156 9.17426C9.17573 9.56262 8.17313 10.5014 8.17313 12.4107C8.17313 14.3202 9.56393 16.1652 9.75773 16.4244C9.95183 16.6831 12.4425 20.7265 16.3869 22.2821C19.6652 23.5748 20.3324 23.3177 21.0439 23.2529C21.7554 23.1883 23.3399 22.3144 23.6632 21.4082C23.9867 20.5021 23.9867 19.7254 23.8897 19.5632C23.7927 19.4015 23.5339 19.3043 23.1458 19.1104C22.7576 18.9163 20.8498 17.9773 20.4941 17.8478C20.1383 17.7185 19.8796 17.6539 19.6207 18.0424C19.362 18.4305 18.6187 19.3043 18.3923 19.5632C18.1659 19.8225 17.9395 19.8549 17.5514 19.6608C17.1632 19.4661 15.9133 19.0567 14.4306 17.7348C13.2769 16.7061 12.4981 15.4358 12.2716 15.0473C12.0453 14.6593 12.2474 14.449 12.442 14.2556C12.6164 14.0817 12.8302 13.8025 13.0243 13.576C13.218 13.3493 13.2825 13.1876 13.4119 12.9287C13.5414 12.6697 13.4767 12.4431 13.3797 12.249C13.2825 12.0549 12.5284 10.1358 12.1833 9.36839Z" fill="var(--fill-0, white)"/>
</g>
<defs>
<linearGradient id="paint0_linear_0_4" x1="1506.6" y1="3025.74" x2="1506.6" y2="0.877067" gradientUnits="userSpaceOnUse">
<stop stop-color="#1FAF38"/>
<stop offset="1" stop-color="#60D669"/>
</linearGradient>
<linearGradient id="paint1_linear_0_4" x1="1560.08" y1="3133.67" x2="1560.08" y2="0.329516" gradientUnits="userSpaceOnUse">
<stop stop-color="#F9F9F9"/>
<stop offset="1" stop-color="white"/>
</linearGradient>
<clipPath id="clip0_0_4">
<rect width="32" height="32" fill="white"/>
</clipPath>
</defs>
</svg>
