<?xml version="1.0" encoding="UTF-8"?>
<svg xmlns="http://www.w3.org/2000/svg" aria-label="COGAT logo" viewBox="0 0 2069.0 1571.9" id="cogat"><style>
.ink path{stroke-dasharray:1;stroke-dashoffset:1;
  animation:draw .42s ease-in-out forwards, fade-ink .22s ease-out forwards;
  animation-delay:calc(var(--d) * .015s), calc(1.00s + var(--d) * .005s);}
@keyframes draw{to{stroke-dashoffset:0}}
@keyframes fade-ink{to{opacity:0}}
.art path{opacity:0;transform-box:fill-box;transform-origin:center;
  animation:paint .3s cubic-bezier(.2,.75,.3,1) forwards;
  animation-delay:calc(0.97s + var(--d) * .005s);}
@keyframes paint{from{opacity:0;transform:scale(.86)}to{opacity:1;transform:none}}
</style>
<g transform="translate(-169.98 -2049.58)">
<g class="ink" fill="none" stroke="#2b3040" stroke-width="14" stroke-linejoin="round" stroke-linecap="round">
<path style="--d:15" pathLength="1" d="M 1105.00 2232.38 L 1105.00 2478.51 C 1102.42 2479.34 1100.64 2478.42 1098.75 2477.92 C 1095.24 2476.99 1091.71 2475.89 1088.12 2475.53 C 1077.13 2474.43 1072.50 2479.49 1074.30 2490.54 C 1078.15 2514.19 1088.19 2535.39 1100.76 2555.46 C 1103.75 2560.23 1105.08 2564.80 1105.01 2570.34 C 1104.77 2588.23 1104.92 2606.14 1104.92 2623.91 C 1101.78 2624.97 1100.39 2622.65 1098.49 2621.74 C 1094.96 2620.05 1091.66 2617.81 1088.03 2616.42 C 1079.30 2613.09 1075.02 2615.99 1075.30 2625.32 C 1076.21 2654.75 1083.47 2682.35 1100.14 2706.98 C 1102.95 2711.13 1104.20 2715.18 1104.17 2720.20 C 1103.91 2766.18 1103.87 2812.17 1103.77 2858.15 C 1103.77 2860.38 1103.77 2862.61 1103.77 2864.85 C 1100.56 2865.81 1098.81 2863.60 1096.73 2862.52 C 1091.24 2859.68 1085.75 2856.83 1079.50 2856.13 C 1072.12 2855.31 1067.62 2858.93 1066.87 2866.29 C 1066.35 2871.40 1067.66 2876.32 1069.13 2881.15 C 1075.01 2900.49 1084.56 2917.84 1098.56 2932.43 C 1102.45 2936.49 1103.64 2940.50 1103.63 2945.81 C 1103.40 3027.96 1103.32 3110.11 1103.19 3192.26 C 1103.17 3207.41 1103.06 3222.56 1106.64 3237.42 C 1107.39 3240.55 1106.71 3242.88 1103.88 3244.52 C 1103.40 3244.80 1102.95 3245.17 1102.58 3245.58 C 1097.29 3251.42 1091.44 3252.51 1083.87 3249.56 C 1072.67 3245.20 1061.11 3241.71 1049.59 3238.24 C 1045.08 3236.87 1042.72 3234.27 1041.11 3229.98 C 1033.69 3210.13 1030.06 3189.50 1027.83 3168.56 C 1025.83 3149.86 1025.61 3131.08 1025.61 3112.29 C 1025.63 2859.10 1025.64 2605.90 1025.50 2352.71 C 1025.50 2346.20 1027.04 2340.98 1030.85 2335.70 C 1054.50 2302.99 1077.86 2270.08 1101.32 2237.23 C 1102.11 2236.12 1102.97 2235.05 1105.00 2232.38 Z"/>
<path style="--d:18" pathLength="1" d="M 961.65 3171.39 C 957.06 3169.38 952.54 3167.30 947.95 3165.40 C 938.25 3161.39 927.80 3160.71 917.65 3158.74 C 908.01 3156.87 898.58 3154.28 889.22 3151.34 C 885.79 3150.26 883.96 3148.51 884.52 3144.71 C 884.76 3143.07 884.56 3141.35 884.56 3139.67 C 884.56 2936.92 884.59 2734.18 884.41 2531.43 C 884.41 2524.21 886.51 2518.80 890.98 2513.26 C 913.15 2485.78 934.95 2457.99 956.89 2430.32 C 958.06 2428.84 958.85 2426.94 961.65 2426.13 L 961.65 3171.39 Z"/>
<path style="--d:19" pathLength="1" d="M 1569.86 3087.76 L 1569.86 2604.71 C 1572.66 2605.94 1574.07 2608.38 1575.68 2610.41 C 1597.80 2638.26 1619.79 2666.21 1642.02 2693.98 C 1645.57 2698.41 1646.91 2702.88 1646.90 2708.53 C 1646.75 2810.04 1646.79 2911.54 1646.79 3013.05 C 1646.79 3023.99 1646.65 3034.93 1646.86 3045.86 C 1646.95 3050.02 1646.01 3052.49 1641.53 3053.76 C 1616.28 3060.91 1592.59 3071.51 1569.86 3087.76 Z"/>
<path style="--d:20" pathLength="1" d="M 820.51 2604.60 L 820.51 3086.77 C 817.15 3087.04 816.31 3084.19 814.88 3082.46 C 807.21 3073.19 800.25 3063.36 791.84 3054.66 C 778.67 3041.05 764.02 3029.44 747.37 3020.49 C 742.98 3018.14 741.65 3015.34 741.65 3010.57 C 741.77 2909.64 741.75 2808.70 741.72 2707.76 C 741.72 2704.33 742.25 2701.44 744.60 2698.50 C 767.84 2669.41 790.87 2640.15 814.03 2610.98 C 815.71 2608.85 817.17 2606.41 820.51 2604.60 Z"/>
<path style="--d:16" pathLength="1" d="M 1420.39 3207.87 C 1422.10 3195.56 1424.53 3183.26 1425.41 3170.75 C 1425.92 3163.47 1426.38 3156.21 1426.38 3148.93 C 1426.40 3073.53 1426.47 2998.13 1426.24 2922.72 C 1426.23 2916.53 1428.10 2912.37 1432.47 2908.17 C 1454.74 2886.73 1474.95 2863.52 1491.19 2837.08 C 1494.53 2831.64 1497.52 2825.99 1501.03 2819.78 C 1502.54 2822.05 1501.99 2823.99 1501.99 2825.74 C 1502.02 2938.42 1501.98 3051.11 1502.16 3163.79 C 1502.16 3169.53 1500.31 3173.02 1495.74 3176.24 C 1473.43 3191.97 1448.67 3201.98 1422.33 3208.44 C 1421.90 3208.54 1421.34 3208.17 1420.39 3207.87 Z"/>
<path style="--d:17" pathLength="1" d="M 1501.45 2778.47 C 1490.27 2773.10 1479.60 2774.93 1468.94 2777.98 C 1457.27 2781.33 1446.48 2786.61 1436.18 2792.97 C 1433.38 2794.70 1430.51 2796.32 1427.57 2798.04 C 1425.70 2795.69 1426.44 2793.39 1426.44 2791.31 C 1426.37 2763.84 1426.48 2736.36 1426.32 2708.88 C 1426.29 2703.69 1427.42 2699.06 1429.52 2694.35 C 1446.21 2657.00 1454.59 2617.81 1454.42 2576.91 C 1454.37 2566.57 1453.94 2556.18 1452.28 2545.92 C 1451.69 2542.31 1451.26 2538.46 1446.97 2537.17 C 1442.43 2535.79 1439.47 2538.63 1436.91 2541.66 C 1433.70 2545.46 1430.81 2549.54 1426.39 2555.30 C 1426.39 2532.32 1426.10 2511.24 1426.48 2490.17 C 1426.86 2469.25 1424.64 2448.21 1428.14 2427.59 C 1431.41 2426.72 1432.14 2428.92 1433.28 2430.36 C 1455.05 2457.79 1476.78 2485.27 1498.60 2512.67 C 1500.80 2515.42 1502.09 2518.11 1502.08 2521.75 C 1501.99 2606.43 1501.99 2691.10 1501.95 2775.77 C 1501.95 2776.32 1501.76 2776.87 1501.45 2778.47 Z"/>
<path style="--d:13" pathLength="1" d="M 1285.34 2234.86 C 1293.13 2246.49 1300.92 2258.12 1308.71 2269.76 C 1325.08 2294.21 1341.37 2318.72 1357.89 2343.08 C 1360.55 2347.00 1362.12 2350.89 1361.65 2355.58 C 1361.62 2355.85 1361.63 2356.14 1361.65 2356.42 C 1363.99 2389.52 1358.82 2421.46 1349.31 2453.24 C 1339.62 2485.68 1332.36 2518.85 1324.01 2551.69 C 1323.62 2553.23 1323.94 2555.13 1321.93 2556.17 C 1319.38 2555.19 1317.42 2552.01 1313.30 2553.70 L 1313.30 2614.19 C 1310.30 2615.71 1309.04 2613.73 1307.59 2612.67 C 1301.26 2608.03 1295.19 2603.00 1288.65 2598.68 C 1284.58 2596.00 1283.55 2592.78 1283.56 2588.17 C 1283.69 2546.39 1283.61 2504.60 1283.60 2462.82 C 1283.60 2389.34 1283.60 2315.87 1283.60 2242.39 C 1283.60 2239.97 1283.60 2237.54 1283.60 2235.12 C 1284.18 2235.03 1284.76 2234.95 1285.34 2234.86 Z"/>
<path style="--d:4" pathLength="1" d="M 1241.22 2563.19 C 1238.38 2563.13 1236.74 2560.97 1234.73 2559.61 C 1224.76 2552.84 1215.09 2545.61 1204.88 2539.24 C 1200.10 2536.26 1198.92 2532.85 1198.98 2527.60 C 1199.32 2499.28 1199.36 2470.97 1199.43 2442.65 C 1199.54 2394.71 1199.56 2346.77 1199.68 2298.83 C 1199.79 2255.38 1199.96 2211.93 1200.12 2168.48 C 1200.21 2144.93 1200.34 2121.39 1200.48 2097.84 C 1200.50 2095.45 1200.72 2093.06 1200.84 2090.84 C 1203.06 2090.34 1203.20 2091.89 1203.61 2092.67 C 1219.85 2123.88 1232.49 2156.38 1238.88 2191.12 C 1241.07 2203.00 1242.24 2214.98 1242.25 2227.06 C 1242.27 2336.40 1242.27 2445.75 1242.22 2555.10 C 1242.22 2557.78 1243.13 2560.69 1241.22 2563.19 Z"/>
<path style="--d:11" pathLength="1" d="M 1281.61 3210.05 C 1281.16 3201.34 1283.32 3193.42 1283.69 3185.34 C 1284.74 3161.82 1284.63 3138.29 1284.26 3114.78 C 1283.67 3078.37 1284.17 3041.97 1283.92 3005.56 C 1283.91 3004.16 1283.99 3002.76 1283.91 3001.36 C 1283.78 2998.83 1284.51 2997.16 1287.31 2996.54 C 1313.54 2990.70 1337.44 2979.30 1360.12 2965.43 C 1362.46 2967.60 1361.58 2969.99 1361.59 2972.10 C 1361.64 3025.88 1361.71 3079.66 1361.59 3133.45 C 1361.54 3156.73 1359.54 3179.85 1354.10 3202.58 C 1353.65 3204.48 1353.16 3206.38 1352.62 3208.26 C 1350.93 3214.12 1350.91 3214.27 1344.55 3213.91 C 1331.69 3213.19 1318.84 3212.29 1305.99 3211.49 C 1297.93 3210.98 1289.87 3210.53 1281.61 3210.05 Z"/>
<path style="--d:8" pathLength="1" d="M 1189.43 2089.58 L 1189.43 2526.51 C 1186.80 2528.17 1185.52 2526.01 1184.05 2525.09 C 1173.34 2518.44 1162.82 2511.49 1152.00 2505.05 C 1148.35 2502.88 1147.24 2500.39 1147.25 2496.32 C 1147.35 2404.68 1147.02 2313.03 1147.48 2221.39 C 1147.66 2184.98 1158.31 2150.77 1173.26 2117.84 C 1177.72 2108.01 1182.33 2098.25 1189.43 2089.58 Z"/>
<path style="--d:14" pathLength="1" d="M 1360.37 2562.82 C 1362.52 2565.70 1361.59 2568.60 1361.60 2571.28 C 1361.66 2610.51 1361.60 2649.73 1361.70 2688.96 C 1361.71 2694.12 1360.77 2698.85 1358.72 2703.59 C 1342.57 2741.11 1326.57 2778.70 1310.46 2816.25 C 1308.83 2820.04 1307.45 2824.02 1304.06 2828.07 C 1305.89 2811.08 1307.76 2795.12 1309.30 2779.12 C 1311.51 2756.27 1313.69 2733.42 1315.48 2710.53 C 1318.09 2677.31 1320.10 2644.03 1320.57 2610.71 C 1320.74 2598.83 1322.96 2589.04 1335.29 2583.65 C 1340.25 2581.49 1344.20 2576.97 1348.49 2573.36 C 1352.51 2569.98 1356.37 2566.39 1360.37 2562.82 Z"/>
<path style="--d:1" pathLength="1" d="M 1198.86 2779.19 C 1212.72 2783.68 1225.47 2787.83 1238.61 2790.53 C 1241.17 2791.06 1242.46 2792.52 1242.28 2795.25 C 1242.16 2797.20 1242.27 2799.17 1242.27 2801.13 C 1242.27 2846.25 1241.87 2891.37 1242.50 2936.48 C 1242.70 2951.04 1236.51 2962.83 1230.86 2976.17 C 1220.13 2965.93 1210.09 2956.26 1199.91 2946.73 C 1197.46 2944.44 1197.81 2941.74 1197.81 2938.98 C 1197.79 2921.89 1197.73 2904.80 1197.81 2887.70 C 1197.97 2853.80 1198.22 2819.90 1198.45 2786.00 C 1198.46 2784.10 1198.67 2782.20 1198.86 2779.19 Z"/>
<path style="--d:7" pathLength="1" d="M 1148.83 2754.50 C 1160.90 2761.78 1173.07 2768.63 1186.07 2773.83 C 1188.51 2774.80 1189.49 2776.47 1189.24 2779.03 C 1189.13 2780.14 1189.22 2781.27 1189.22 2782.39 C 1189.22 2831.13 1189.22 2879.87 1189.22 2928.60 L 1189.22 2934.02 C 1186.53 2935.41 1185.68 2933.40 1184.57 2932.43 C 1173.62 2922.84 1162.79 2913.11 1151.77 2903.60 C 1148.84 2901.06 1147.21 2898.53 1147.22 2894.39 C 1147.37 2849.02 1147.31 2803.64 1147.33 2758.26 C 1147.33 2757.22 1147.03 2756.05 1148.83 2754.50 Z"/>
<path style="--d:12" pathLength="1" d="M 1284.24 2950.60 C 1283.64 2945.34 1284.00 2941.25 1285.06 2937.11 C 1291.98 2909.98 1296.35 2882.35 1300.17 2854.65 C 1300.75 2850.42 1302.18 2847.36 1305.60 2844.87 C 1324.88 2830.83 1342.64 2815.05 1359.09 2797.80 C 1359.43 2797.44 1360.07 2797.38 1360.60 2797.17 C 1362.40 2799.07 1361.59 2801.43 1361.60 2803.56 C 1361.68 2819.52 1361.59 2835.47 1361.68 2851.43 C 1361.70 2854.93 1361.00 2857.78 1358.46 2860.52 C 1332.77 2888.26 1309.17 2917.73 1286.85 2948.24 C 1286.40 2948.86 1285.70 2949.30 1284.24 2950.60 Z"/>
<path style="--d:3" pathLength="1" d="M 1199.62 2633.73 C 1212.41 2636.58 1225.06 2638.62 1237.95 2638.40 C 1241.27 2638.35 1242.33 2639.73 1242.29 2642.89 C 1242.17 2650.72 1242.26 2658.55 1242.26 2666.38 C 1242.26 2690.15 1242.26 2713.92 1242.26 2737.69 C 1242.26 2740.44 1242.26 2743.19 1242.26 2745.56 C 1240.02 2747.08 1239.15 2745.66 1238.25 2744.80 C 1226.32 2733.41 1214.47 2721.94 1202.47 2710.61 C 1200.09 2708.36 1198.71 2706.10 1198.73 2702.68 C 1198.88 2680.87 1198.86 2659.05 1198.94 2637.24 C 1198.94 2636.18 1199.34 2635.11 1199.62 2633.73 Z"/>
<path style="--d:5" pathLength="1" d="M 1147.55 3067.96 L 1147.55 2967.29 C 1149.70 2965.95 1151.41 2967.21 1153.18 2967.82 C 1162.97 2971.23 1172.88 2974.20 1183.14 2975.84 C 1187.14 2976.48 1189.32 2977.81 1189.24 2982.66 C 1188.92 3001.43 1189.10 3020.21 1189.12 3038.98 C 1189.12 3041.53 1189.07 3043.88 1187.01 3045.91 C 1177.12 3055.70 1166.18 3063.75 1152.51 3067.44 C 1151.20 3067.80 1149.78 3067.74 1147.55 3067.96 Z"/>
<path style="--d:2" pathLength="1" d="M 1241.18 3034.88 C 1243.15 3036.71 1242.21 3039.09 1242.22 3041.19 C 1242.29 3071.46 1242.27 3101.74 1242.26 3132.01 C 1242.26 3133.41 1242.25 3134.82 1242.22 3136.22 C 1242.17 3138.55 1241.14 3139.77 1238.62 3139.75 C 1226.01 3139.70 1213.39 3139.71 1200.78 3139.75 C 1198.16 3139.76 1197.41 3138.35 1197.42 3136.05 C 1197.50 3119.79 1197.60 3103.54 1197.59 3087.28 C 1197.59 3084.80 1198.52 3083.04 1200.30 3081.48 C 1215.56 3068.07 1228.23 3052.42 1239.80 3035.83 C 1240.09 3035.41 1240.68 3035.21 1241.18 3034.88 Z"/>
<path style="--d:10" pathLength="1" d="M 1312.38 2621.97 C 1306.80 2679.21 1298.06 2735.16 1286.42 2791.36 C 1282.65 2788.83 1283.67 2785.60 1283.66 2782.87 C 1283.58 2762.98 1283.62 2743.09 1283.62 2723.21 C 1283.62 2695.76 1283.60 2668.31 1283.63 2640.86 C 1283.64 2629.88 1282.96 2632.37 1291.69 2629.30 C 1298.26 2626.99 1304.82 2624.65 1312.38 2621.97 Z"/>
<path style="--d:6" pathLength="1" d="M 1147.32 2607.75 C 1160.44 2616.96 1172.62 2624.23 1186.08 2629.08 C 1189.02 2630.14 1189.50 2632.18 1189.49 2634.94 C 1189.42 2655.34 1189.45 2675.74 1189.45 2696.06 C 1186.65 2697.07 1185.64 2694.89 1184.34 2693.72 C 1173.31 2683.83 1162.38 2673.83 1151.39 2663.89 C 1149.33 2662.02 1147.22 2660.48 1147.25 2657.10 C 1147.40 2641.22 1147.32 2625.33 1147.32 2607.75 Z"/>
<path style="--d:9" pathLength="1" d="M 1189.12 3091.56 C 1189.12 3107.38 1189.07 3121.33 1189.16 3135.28 C 1189.18 3138.43 1188.12 3139.84 1184.82 3139.81 C 1173.62 3139.71 1162.42 3139.73 1151.23 3139.79 C 1148.35 3139.81 1147.13 3138.52 1147.30 3135.74 C 1147.32 3135.46 1147.29 3135.18 1147.30 3134.90 C 1147.34 3129.03 1145.98 3122.66 1147.82 3117.41 C 1149.66 3112.15 1156.89 3111.79 1161.66 3109.14 C 1170.66 3104.16 1179.07 3098.25 1189.12 3091.56 Z"/>
<path style="--d:0" pathLength="1" d="M 1229.70 2978.61 C 1220.97 2998.09 1211.41 3015.48 1199.27 3031.55 C 1196.95 3029.74 1197.65 3027.95 1197.65 3026.43 C 1197.62 3012.15 1197.80 2997.86 1197.65 2983.58 C 1197.61 2979.57 1198.74 2978.30 1202.92 2978.49 C 1211.45 2978.88 1220.02 2978.61 1229.70 2978.61 Z"/>
<path style="--d:26" pathLength="1" d="M 211.56 3018.95 C 215.17 3019.15 217.47 3021.86 220.22 3023.61 C 256.30 3046.54 294.78 3063.57 337.25 3070.27 C 376.43 3076.46 414.89 3073.68 452.17 3059.20 C 502.39 3039.69 554.28 3027.27 608.16 3024.51 C 644.57 3022.64 680.37 3026.50 714.49 3040.61 C 739.06 3050.76 760.02 3065.84 776.70 3086.59 C 787.95 3100.57 798.85 3114.82 809.88 3128.97 C 810.72 3130.05 811.35 3131.29 812.21 3132.65 C 806.50 3136.08 800.66 3138.93 795.96 3143.41 C 794.36 3144.94 792.77 3145.25 790.63 3144.54 C 774.46 3139.19 757.69 3138.35 740.84 3138.06 C 702.97 3137.42 665.23 3139.75 627.53 3143.04 C 598.22 3145.60 568.88 3147.78 539.57 3150.38 C 504.95 3153.45 470.31 3156.41 435.61 3158.04 C 403.70 3159.53 371.72 3160.63 339.82 3157.14 C 335.89 3156.71 332.09 3155.95 328.40 3154.59 C 267.05 3131.81 228.49 3088.45 211.87 3025.36 C 211.35 3023.38 209.98 3021.19 211.53 3018.99 L 211.56 3018.95 Z"/>
<path style="--d:24" pathLength="1" d="M 331.20 3188.56 C 344.85 3189.54 356.47 3190.80 368.15 3190.90 C 402.35 3191.22 436.47 3190.23 470.59 3187.76 C 501.04 3185.55 531.45 3182.97 561.87 3180.49 C 593.12 3177.95 624.34 3174.99 655.62 3172.72 C 689.70 3170.24 723.83 3168.60 758.02 3170.58 C 758.30 3170.59 758.59 3170.56 758.86 3170.62 C 763.74 3171.72 770.29 3170.13 773.20 3173.70 C 776.01 3177.14 771.61 3182.39 770.66 3186.90 C 768.28 3198.17 766.85 3209.56 766.96 3221.06 C 767.00 3225.23 765.69 3226.87 761.49 3227.63 C 710.27 3236.91 658.97 3245.56 607.23 3251.56 C 563.29 3256.66 519.29 3261.18 475.33 3266.00 C 449.23 3268.87 424.62 3264.29 401.38 3252.05 C 373.28 3237.24 351.47 3215.53 331.20 3188.56 Z"/>
<path style="--d:22" pathLength="1" d="M 492.70 3296.77 C 500.08 3294.25 508.01 3294.57 515.69 3293.80 C 552.73 3290.10 589.72 3285.93 626.65 3281.29 C 672.45 3275.54 718.23 3269.57 763.48 3260.22 C 770.25 3258.82 770.00 3259.61 770.94 3265.32 C 774.30 3285.77 779.48 3305.82 786.06 3325.46 C 787.56 3329.94 786.72 3331.82 782.46 3333.67 C 737.16 3353.35 690.43 3366.99 640.60 3367.59 C 603.12 3368.04 567.79 3360.21 535.98 3339.47 C 519.87 3328.96 506.14 3315.89 494.37 3300.72 C 493.53 3299.63 492.45 3298.65 492.70 3296.77 Z"/>
<path style="--d:27" pathLength="1" d="M 211.53 3018.99 C 210.94 3019.51 210.54 3019.38 210.45 3018.61 C 210.42 3018.39 210.61 3017.94 210.72 3017.93 C 211.38 3017.91 211.66 3018.29 211.56 3018.95 C 211.56 3018.95 211.53 3018.99 211.53 3018.99 Z"/>
<path style="--d:25" pathLength="1" d="M 2199.00 3066.24 C 2196.06 3084.45 2188.56 3100.20 2177.72 3114.40 C 2162.27 3134.65 2142.24 3149.38 2119.54 3160.34 C 2109.67 3165.10 2098.37 3165.35 2087.61 3167.01 C 2037.56 3174.70 1987.19 3175.48 1936.71 3173.85 C 1888.53 3172.29 1840.56 3167.93 1792.69 3162.40 C 1749.01 3157.35 1705.37 3152.03 1661.65 3147.37 C 1638.27 3144.88 1614.80 3142.81 1591.21 3143.69 C 1582.80 3144.01 1574.47 3144.90 1566.22 3146.60 C 1564.26 3147.00 1561.65 3148.78 1560.17 3146.05 C 1558.90 3143.69 1560.94 3141.82 1562.23 3140.07 C 1567.57 3132.82 1573.77 3126.37 1580.68 3120.59 C 1604.86 3100.36 1633.13 3088.63 1663.39 3081.33 C 1702.39 3071.92 1742.00 3070.19 1781.93 3072.55 C 1825.66 3075.14 1868.68 3082.34 1911.32 3092.09 C 1955.10 3102.11 1999.32 3109.01 2044.33 3109.46 C 2080.41 3109.83 2115.91 3105.96 2149.97 3093.11 C 2165.79 3087.14 2180.52 3079.19 2193.82 3068.67 C 2195.07 3067.68 2196.01 3066.01 2199.00 3066.24 Z"/>
<path style="--d:23" pathLength="1" d="M 2091.59 3199.33 C 2078.14 3217.19 2065.65 3234.02 2047.72 3245.73 C 2033.18 3255.23 2018.47 3264.48 2003.95 3274.00 C 1986.18 3285.65 1966.52 3291.38 1945.55 3293.11 C 1907.93 3296.23 1870.57 3293.07 1833.25 3288.56 C 1775.32 3281.56 1718.32 3269.95 1662.10 3254.45 C 1637.27 3247.61 1612.80 3239.71 1589.04 3229.57 C 1579.93 3225.69 1574.45 3220.41 1573.19 3210.31 C 1572.16 3202.02 1569.75 3193.89 1568.15 3185.66 C 1566.99 3179.69 1567.40 3178.92 1573.50 3177.71 C 1579.25 3176.56 1585.07 3175.71 1590.99 3175.55 C 1615.71 3174.86 1640.26 3177.12 1664.76 3179.88 C 1695.10 3183.28 1725.40 3187.00 1755.73 3190.39 C 1786.07 3193.78 1816.40 3197.32 1846.79 3200.07 C 1883.07 3203.36 1919.41 3205.63 1955.87 3206.23 C 1977.46 3206.57 1999.02 3206.23 2020.56 3205.42 C 2042.68 3204.60 2064.73 3202.71 2086.63 3199.35 C 2087.72 3199.19 2088.86 3199.33 2091.59 3199.33 Z"/>
<path style="--d:21" pathLength="1" d="M 1951.17 3325.38 C 1950.83 3327.99 1948.98 3328.91 1947.58 3330.07 C 1909.95 3361.48 1866.99 3381.29 1818.59 3389.27 C 1785.69 3394.69 1752.82 3393.99 1719.82 3389.65 C 1690.09 3385.73 1660.46 3381.49 1631.42 3373.89 C 1615.69 3369.77 1600.21 3364.93 1585.88 3356.97 C 1582.43 3355.05 1580.37 3352.99 1580.86 3348.46 C 1583.90 3320.48 1583.03 3292.51 1579.83 3264.59 C 1579.71 3263.56 1580.04 3262.49 1580.21 3260.99 C 1591.32 3265.04 1601.98 3269.22 1612.82 3272.83 C 1661.52 3289.07 1711.39 3300.62 1761.81 3309.98 C 1798.18 3316.73 1834.79 3321.86 1871.69 3324.55 C 1896.01 3326.33 1920.38 3327.16 1944.76 3325.24 C 1946.85 3325.07 1949.03 3324.55 1951.17 3325.38 Z"/>
<path style="--d:34" pathLength="1" d="M 1267.40 2991.85 C 1266.98 2989.07 1268.37 2987.87 1269.29 2986.54 C 1303.71 2936.27 1340.68 2888.05 1384.07 2845.08 C 1402.83 2826.50 1422.79 2809.31 1445.90 2796.22 C 1457.17 2789.83 1468.88 2784.48 1481.95 2783.03 C 1497.68 2781.27 1502.75 2787.11 1498.75 2802.59 C 1495.92 2813.55 1490.86 2823.63 1484.67 2832.97 C 1444.20 2894.00 1392.06 2942.14 1326.34 2974.99 C 1309.73 2983.30 1292.08 2988.83 1273.57 2991.28 C 1271.65 2991.53 1269.71 2991.64 1267.40 2991.85 Z"/>
<path style="--d:40" pathLength="1" d="M 1300.88 2617.68 C 1288.67 2623.21 1276.58 2626.36 1264.23 2628.48 C 1209.45 2637.86 1164.44 2619.63 1127.93 2579.03 C 1106.08 2554.74 1090.44 2526.80 1082.70 2494.80 C 1079.75 2482.60 1081.94 2480.58 1094.14 2484.38 C 1108.12 2488.74 1120.93 2495.71 1133.57 2502.94 C 1169.84 2523.67 1204.22 2547.30 1238.24 2571.46 C 1256.96 2584.75 1275.39 2598.45 1293.92 2612.00 C 1296.14 2613.62 1298.19 2615.48 1300.88 2617.68 Z"/>
<path style="--d:41" pathLength="1" d="M 1420.81 2266.07 C 1423.90 2268.46 1423.78 2271.85 1424.14 2274.72 C 1431.63 2334.17 1431.82 2393.27 1414.71 2451.38 C 1401.79 2495.23 1380.33 2534.03 1346.24 2565.17 C 1340.10 2570.79 1333.79 2576.24 1325.64 2580.78 C 1326.41 2572.15 1328.69 2564.95 1330.44 2557.66 C 1347.58 2486.31 1365.91 2415.28 1387.76 2345.21 C 1394.27 2324.34 1401.08 2303.56 1410.00 2283.57 C 1412.78 2277.34 1415.07 2270.60 1420.81 2266.07 Z"/>
<path style="--d:37" pathLength="1" d="M 1315.70 2827.56 C 1313.89 2825.21 1315.76 2823.34 1316.60 2821.43 C 1348.48 2749.24 1377.30 2675.72 1410.75 2604.21 C 1418.58 2587.47 1426.50 2570.77 1436.48 2555.16 C 1438.51 2551.97 1440.30 2548.48 1444.57 2545.70 C 1445.27 2551.46 1446.12 2556.31 1446.41 2561.19 C 1449.24 2608.56 1440.39 2653.70 1420.09 2696.55 C 1395.55 2748.36 1359.89 2791.32 1315.61 2827.37 L 1315.70 2827.56 Z"/>
<path style="--d:38" pathLength="1" d="M 1269.99 2788.67 C 1254.88 2786.95 1240.70 2783.81 1226.67 2779.95 C 1195.89 2771.50 1166.83 2759.27 1141.34 2739.66 C 1105.00 2711.72 1085.19 2674.97 1083.02 2628.99 C 1082.96 2627.87 1082.95 2626.74 1083.01 2625.63 C 1083.04 2625.08 1083.29 2624.55 1083.52 2623.72 C 1087.69 2623.36 1090.75 2626.00 1093.94 2627.98 C 1104.93 2634.79 1114.97 2642.89 1124.85 2651.17 C 1165.27 2685.03 1203.33 2721.48 1241.07 2758.25 C 1249.30 2766.27 1257.57 2774.26 1265.73 2782.35 C 1267.25 2783.85 1269.36 2785.00 1269.99 2788.67 Z"/>
<path style="--d:33" pathLength="1" d="M 1304.75 2749.91 C 1301.12 2790.66 1296.41 2831.28 1290.23 2871.73 C 1284.34 2910.31 1276.75 2948.38 1259.96 2984.08 C 1241.85 3022.59 1219.03 3057.47 1185.41 3084.35 C 1171.11 3095.79 1155.64 3105.26 1138.25 3111.19 C 1136.10 3109.35 1137.34 3107.46 1137.80 3105.72 C 1140.01 3097.32 1142.32 3088.95 1144.56 3080.57 C 1145.24 3078.05 1146.05 3076.14 1149.26 3075.59 C 1172.94 3071.47 1189.22 3056.32 1203.39 3038.41 C 1218.63 3019.16 1229.83 2997.50 1239.61 2975.09 C 1259.74 2928.96 1273.54 2880.79 1285.03 2831.92 C 1290.93 2806.85 1296.91 2781.79 1300.36 2756.21 C 1300.66 2754.04 1301.56 2751.94 1302.18 2749.81 C 1303.04 2749.84 1303.89 2749.87 1304.75 2749.91 Z"/>
<path style="--d:35" pathLength="1" d="M 1213.13 2971.63 C 1203.13 2972.08 1193.34 2970.29 1183.62 2968.42 C 1153.87 2962.67 1127.06 2950.90 1105.58 2928.84 C 1091.25 2914.13 1081.47 2896.70 1075.79 2876.98 C 1074.64 2873.00 1072.50 2867.98 1075.67 2865.02 C 1079.39 2861.52 1084.11 2864.91 1088.03 2866.76 C 1099.75 2872.28 1110.14 2879.92 1120.33 2887.79 C 1152.27 2912.44 1181.92 2939.71 1210.93 2967.70 C 1211.86 2968.59 1213.27 2969.27 1213.13 2971.63 Z"/>
<path style="--d:39" pathLength="1" d="M 1304.75 2749.91 C 1303.89 2749.87 1303.04 2749.84 1302.18 2749.81 C 1302.55 2740.91 1305.16 2732.39 1306.61 2722.29 C 1306.61 2722.55 1307.91 2724.01 1306.85 2723.64 C 1306.64 2732.43 1306.59 2741.24 1304.75 2749.91 Z"/>
<path style="--d:36" pathLength="1" d="M 1315.61 2827.37 C 1315.21 2827.51 1314.81 2827.65 1314.42 2827.79 C 1314.66 2826.80 1315.10 2826.77 1315.70 2827.54 C 1315.70 2827.56 1315.61 2827.37 1315.61 2827.37 Z"/>
<path style="--d:29" pathLength="1" d="M 972.86 3234.81 C 1000.70 3257.50 1034.78 3266.60 1067.85 3278.44 C 1064.71 3283.57 1061.48 3288.17 1058.93 3293.11 C 1053.18 3304.28 1049.75 3315.91 1052.71 3328.71 C 1057.30 3348.60 1076.34 3361.55 1096.39 3357.46 C 1115.03 3353.66 1133.49 3348.95 1152.34 3346.18 C 1190.84 3340.54 1229.27 3339.43 1267.70 3347.04 C 1278.30 3349.14 1287.94 3353.48 1297.52 3358.08 C 1329.27 3373.32 1358.30 3392.79 1385.39 3415.20 C 1389.04 3418.23 1392.32 3421.74 1395.52 3425.26 C 1404.38 3435.01 1412.78 3445.20 1422.79 3453.82 C 1425.87 3456.47 1425.68 3458.71 1423.69 3461.64 C 1421.16 3465.39 1418.19 3468.69 1414.64 3471.51 C 1405.29 3478.93 1394.82 3484.16 1383.32 3487.19 C 1378.83 3488.37 1376.04 3490.18 1375.38 3495.33 C 1374.46 3502.55 1369.24 3507.02 1363.47 3510.80 C 1350.86 3519.08 1336.71 3523.48 1322.24 3527.00 C 1318.17 3527.99 1314.02 3528.69 1309.87 3529.30 C 1305.69 3529.90 1302.26 3531.18 1301.64 3536.03 C 1301.60 3536.30 1301.41 3536.55 1301.33 3536.81 C 1294.72 3556.73 1280.39 3562.50 1260.32 3560.20 C 1254.82 3559.56 1249.25 3556.10 1244.11 3556.80 C 1239.17 3557.48 1236.84 3564.08 1232.56 3567.27 C 1225.59 3572.47 1217.64 3574.93 1209.17 3575.77 C 1200.79 3576.60 1192.38 3576.64 1184.09 3574.69 C 1180.16 3573.77 1176.43 3574.36 1172.53 3575.37 C 1157.50 3579.26 1142.32 3581.48 1126.85 3577.92 C 1117.30 3575.73 1109.68 3570.94 1102.89 3563.54 C 1080.74 3539.39 1055.17 3520.39 1022.29 3513.09 C 1013.60 3511.17 1006.68 3505.67 1000.04 3500.00 C 986.31 3488.29 974.82 3474.52 963.96 3460.21 C 958.55 3453.07 953.28 3445.80 948.34 3438.32 C 942.17 3428.99 935.74 3420.27 926.94 3412.85 C 912.39 3400.58 908.73 3383.28 909.18 3364.91 C 909.51 3351.04 912.59 3337.68 917.12 3324.68 C 927.37 3295.28 942.61 3268.66 962.67 3244.82 C 965.72 3241.19 968.79 3237.54 972.86 3234.81 Z"/>
<path style="--d:30" pathLength="1" d="M 1535.47 3186.46 C 1538.26 3197.29 1539.84 3208.56 1541.63 3219.77 C 1546.81 3252.14 1551.19 3284.61 1550.76 3317.49 C 1550.62 3328.12 1549.57 3338.73 1548.92 3349.35 C 1548.75 3352.22 1547.79 3354.75 1545.90 3357.01 C 1526.48 3380.29 1506.24 3402.76 1481.68 3420.87 C 1475.13 3425.70 1468.15 3429.79 1460.50 3432.77 C 1454.02 3435.30 1448.68 3434.25 1443.57 3429.51 C 1435.33 3421.86 1427.98 3413.41 1420.54 3405.04 C 1396.53 3378.01 1369.86 3354.30 1337.39 3337.75 C 1308.85 3323.21 1278.53 3314.86 1246.75 3311.54 C 1196.52 3306.29 1147.29 3312.59 1098.50 3324.23 C 1096.33 3324.75 1094.18 3325.42 1091.97 3325.79 C 1086.23 3326.75 1082.78 3323.39 1083.81 3317.59 C 1084.49 3313.72 1086.04 3310.10 1088.04 3306.68 C 1092.61 3298.85 1098.80 3292.41 1104.92 3285.83 C 1125.22 3263.99 1151.28 3254.29 1179.83 3249.56 C 1222.59 3242.49 1265.55 3240.63 1308.78 3243.88 C 1330.00 3245.48 1351.27 3246.94 1372.53 3247.33 C 1397.65 3247.79 1422.07 3242.48 1446.01 3235.29 C 1478.07 3225.67 1507.38 3210.90 1532.11 3187.90 C 1532.91 3187.16 1533.63 3186.18 1535.47 3186.46 Z"/>
<path style="--d:28" pathLength="1" d="M 878.19 3388.13 C 871.15 3381.75 865.49 3376.86 860.10 3371.69 C 848.57 3360.64 837.68 3348.96 827.05 3337.04 C 823.45 3333.01 820.81 3328.63 819.04 3323.48 C 809.38 3295.32 802.10 3266.62 799.41 3236.93 C 798.04 3221.82 798.35 3206.68 802.52 3191.92 C 806.89 3176.48 815.48 3164.77 831.56 3159.79 C 834.44 3158.90 836.67 3158.63 839.28 3160.72 C 860.95 3178.00 886.64 3185.46 913.23 3190.61 C 919.27 3191.77 925.39 3192.55 931.38 3193.93 C 940.04 3195.92 947.45 3200.16 952.94 3207.01 C 953.21 3209.45 951.38 3210.17 950.29 3211.29 C 915.83 3246.51 892.54 3287.98 880.87 3335.88 C 877.74 3348.73 876.63 3361.80 877.54 3375.03 C 877.79 3378.65 877.91 3382.28 878.19 3388.13 Z"/>
<path style="--d:31" pathLength="1" d="M 1196.11 3219.19 C 1179.05 3219.18 1161.98 3219.31 1144.92 3219.13 C 1134.84 3219.03 1128.22 3212.45 1128.22 3203.14 C 1128.22 3194.84 1134.19 3188.16 1142.46 3187.31 C 1144.12 3187.14 1145.81 3187.24 1147.49 3187.24 C 1180.22 3187.24 1212.95 3187.23 1245.68 3187.25 C 1248.73 3187.26 1251.79 3187.00 1254.77 3188.23 C 1261.88 3191.18 1266.13 3198.39 1264.90 3205.70 C 1263.66 3213.06 1257.61 3218.82 1249.82 3219.07 C 1239.20 3219.42 1228.56 3219.18 1217.93 3219.19 C 1210.66 3219.20 1203.38 3219.19 1196.11 3219.19 Z"/>
<path style="--d:32" pathLength="1" d="M 1197.08 3146.86 C 1214.15 3146.85 1231.22 3147.16 1248.27 3146.73 C 1256.99 3146.50 1265.03 3153.66 1265.31 3161.75 C 1265.62 3170.33 1259.75 3177.66 1251.18 3178.65 C 1248.14 3179.00 1245.03 3178.80 1241.95 3178.80 C 1211.46 3178.81 1180.97 3178.81 1150.49 3178.80 C 1148.25 3178.80 1146.00 3178.92 1143.77 3178.76 C 1134.96 3178.11 1128.47 3171.41 1128.38 3162.99 C 1128.29 3154.10 1134.86 3147.06 1144.22 3146.93 C 1161.84 3146.69 1179.46 3146.86 1197.08 3146.86 Z"/>
</g>
<g class="art">
<path style="--d:15" fill="#4c4c5a" d="M 1105.00 2232.38 L 1105.00 2478.51 C 1102.42 2479.34 1100.64 2478.42 1098.75 2477.92 C 1095.24 2476.99 1091.71 2475.89 1088.12 2475.53 C 1077.13 2474.43 1072.50 2479.49 1074.30 2490.54 C 1078.15 2514.19 1088.19 2535.39 1100.76 2555.46 C 1103.75 2560.23 1105.08 2564.80 1105.01 2570.34 C 1104.77 2588.23 1104.92 2606.14 1104.92 2623.91 C 1101.78 2624.97 1100.39 2622.65 1098.49 2621.74 C 1094.96 2620.05 1091.66 2617.81 1088.03 2616.42 C 1079.30 2613.09 1075.02 2615.99 1075.30 2625.32 C 1076.21 2654.75 1083.47 2682.35 1100.14 2706.98 C 1102.95 2711.13 1104.20 2715.18 1104.17 2720.20 C 1103.91 2766.18 1103.87 2812.17 1103.77 2858.15 C 1103.77 2860.38 1103.77 2862.61 1103.77 2864.85 C 1100.56 2865.81 1098.81 2863.60 1096.73 2862.52 C 1091.24 2859.68 1085.75 2856.83 1079.50 2856.13 C 1072.12 2855.31 1067.62 2858.93 1066.87 2866.29 C 1066.35 2871.40 1067.66 2876.32 1069.13 2881.15 C 1075.01 2900.49 1084.56 2917.84 1098.56 2932.43 C 1102.45 2936.49 1103.64 2940.50 1103.63 2945.81 C 1103.40 3027.96 1103.32 3110.11 1103.19 3192.26 C 1103.17 3207.41 1103.06 3222.56 1106.64 3237.42 C 1107.39 3240.55 1106.71 3242.88 1103.88 3244.52 C 1103.40 3244.80 1102.95 3245.17 1102.58 3245.58 C 1097.29 3251.42 1091.44 3252.51 1083.87 3249.56 C 1072.67 3245.20 1061.11 3241.71 1049.59 3238.24 C 1045.08 3236.87 1042.72 3234.27 1041.11 3229.98 C 1033.69 3210.13 1030.06 3189.50 1027.83 3168.56 C 1025.83 3149.86 1025.61 3131.08 1025.61 3112.29 C 1025.63 2859.10 1025.64 2605.90 1025.50 2352.71 C 1025.50 2346.20 1027.04 2340.98 1030.85 2335.70 C 1054.50 2302.99 1077.86 2270.08 1101.32 2237.23 C 1102.11 2236.12 1102.97 2235.05 1105.00 2232.38 Z"/>
<path style="--d:18" fill="#5f606e" d="M 961.65 3171.39 C 957.06 3169.38 952.54 3167.30 947.95 3165.40 C 938.25 3161.39 927.80 3160.71 917.65 3158.74 C 908.01 3156.87 898.58 3154.28 889.22 3151.34 C 885.79 3150.26 883.96 3148.51 884.52 3144.71 C 884.76 3143.07 884.56 3141.35 884.56 3139.67 C 884.56 2936.92 884.59 2734.18 884.41 2531.43 C 884.41 2524.21 886.51 2518.80 890.98 2513.26 C 913.15 2485.78 934.95 2457.99 956.89 2430.32 C 958.06 2428.84 958.85 2426.94 961.65 2426.13 L 961.65 3171.39 Z"/>
<path style="--d:19" fill="#9291a6" d="M 1569.86 3087.76 L 1569.86 2604.71 C 1572.66 2605.94 1574.07 2608.38 1575.68 2610.41 C 1597.80 2638.26 1619.79 2666.21 1642.02 2693.98 C 1645.57 2698.41 1646.91 2702.88 1646.90 2708.53 C 1646.75 2810.04 1646.79 2911.54 1646.79 3013.05 C 1646.79 3023.99 1646.65 3034.93 1646.86 3045.86 C 1646.95 3050.02 1646.01 3052.49 1641.53 3053.76 C 1616.28 3060.91 1592.59 3071.51 1569.86 3087.76 Z"/>
<path style="--d:20" fill="#9291a6" d="M 820.51 2604.60 L 820.51 3086.77 C 817.15 3087.04 816.31 3084.19 814.88 3082.46 C 807.21 3073.19 800.25 3063.36 791.84 3054.66 C 778.67 3041.05 764.02 3029.44 747.37 3020.49 C 742.98 3018.14 741.65 3015.34 741.65 3010.57 C 741.77 2909.64 741.75 2808.70 741.72 2707.76 C 741.72 2704.33 742.25 2701.44 744.60 2698.50 C 767.84 2669.41 790.87 2640.15 814.03 2610.98 C 815.71 2608.85 817.17 2606.41 820.51 2604.60 Z"/>
<path style="--d:16" fill="#5f606e" d="M 1420.39 3207.87 C 1422.10 3195.56 1424.53 3183.26 1425.41 3170.75 C 1425.92 3163.47 1426.38 3156.21 1426.38 3148.93 C 1426.40 3073.53 1426.47 2998.13 1426.24 2922.72 C 1426.23 2916.53 1428.10 2912.37 1432.47 2908.17 C 1454.74 2886.73 1474.95 2863.52 1491.19 2837.08 C 1494.53 2831.64 1497.52 2825.99 1501.03 2819.78 C 1502.54 2822.05 1501.99 2823.99 1501.99 2825.74 C 1502.02 2938.42 1501.98 3051.11 1502.16 3163.79 C 1502.16 3169.53 1500.31 3173.02 1495.74 3176.24 C 1473.43 3191.97 1448.67 3201.98 1422.33 3208.44 C 1421.90 3208.54 1421.34 3208.17 1420.39 3207.87 Z"/>
<path style="--d:17" fill="#5f606e" d="M 1501.45 2778.47 C 1490.27 2773.10 1479.60 2774.93 1468.94 2777.98 C 1457.27 2781.33 1446.48 2786.61 1436.18 2792.97 C 1433.38 2794.70 1430.51 2796.32 1427.57 2798.04 C 1425.70 2795.69 1426.44 2793.39 1426.44 2791.31 C 1426.37 2763.84 1426.48 2736.36 1426.32 2708.88 C 1426.29 2703.69 1427.42 2699.06 1429.52 2694.35 C 1446.21 2657.00 1454.59 2617.81 1454.42 2576.91 C 1454.37 2566.57 1453.94 2556.18 1452.28 2545.92 C 1451.69 2542.31 1451.26 2538.46 1446.97 2537.17 C 1442.43 2535.79 1439.47 2538.63 1436.91 2541.66 C 1433.70 2545.46 1430.81 2549.54 1426.39 2555.30 C 1426.39 2532.32 1426.10 2511.24 1426.48 2490.17 C 1426.86 2469.25 1424.64 2448.21 1428.14 2427.59 C 1431.41 2426.72 1432.14 2428.92 1433.28 2430.36 C 1455.05 2457.79 1476.78 2485.27 1498.60 2512.67 C 1500.80 2515.42 1502.09 2518.11 1502.08 2521.75 C 1501.99 2606.43 1501.99 2691.10 1501.95 2775.77 C 1501.95 2776.32 1501.76 2776.87 1501.45 2778.47 Z"/>
<path style="--d:13" fill="#4d4d5b" d="M 1285.34 2234.86 C 1293.13 2246.49 1300.92 2258.12 1308.71 2269.76 C 1325.08 2294.21 1341.37 2318.72 1357.89 2343.08 C 1360.55 2347.00 1362.12 2350.89 1361.65 2355.58 C 1361.62 2355.85 1361.63 2356.14 1361.65 2356.42 C 1363.99 2389.52 1358.82 2421.46 1349.31 2453.24 C 1339.62 2485.68 1332.36 2518.85 1324.01 2551.69 C 1323.62 2553.23 1323.94 2555.13 1321.93 2556.17 C 1319.38 2555.19 1317.42 2552.01 1313.30 2553.70 L 1313.30 2614.19 C 1310.30 2615.71 1309.04 2613.73 1307.59 2612.67 C 1301.26 2608.03 1295.19 2603.00 1288.65 2598.68 C 1284.58 2596.00 1283.55 2592.78 1283.56 2588.17 C 1283.69 2546.39 1283.61 2504.60 1283.60 2462.82 C 1283.60 2389.34 1283.60 2315.87 1283.60 2242.39 C 1283.60 2239.97 1283.60 2237.54 1283.60 2235.12 C 1284.18 2235.03 1284.76 2234.95 1285.34 2234.86 Z"/>
<path style="--d:4" fill="#3b3b46" d="M 1241.22 2563.19 C 1238.38 2563.13 1236.74 2560.97 1234.73 2559.61 C 1224.76 2552.84 1215.09 2545.61 1204.88 2539.24 C 1200.10 2536.26 1198.92 2532.85 1198.98 2527.60 C 1199.32 2499.28 1199.36 2470.97 1199.43 2442.65 C 1199.54 2394.71 1199.56 2346.77 1199.68 2298.83 C 1199.79 2255.38 1199.96 2211.93 1200.12 2168.48 C 1200.21 2144.93 1200.34 2121.39 1200.48 2097.84 C 1200.50 2095.45 1200.72 2093.06 1200.84 2090.84 C 1203.06 2090.34 1203.20 2091.89 1203.61 2092.67 C 1219.85 2123.88 1232.49 2156.38 1238.88 2191.12 C 1241.07 2203.00 1242.24 2214.98 1242.25 2227.06 C 1242.27 2336.40 1242.27 2445.75 1242.22 2555.10 C 1242.22 2557.78 1243.13 2560.69 1241.22 2563.19 Z"/>
<path style="--d:11" fill="#4c4c5a" d="M 1281.61 3210.05 C 1281.16 3201.34 1283.32 3193.42 1283.69 3185.34 C 1284.74 3161.82 1284.63 3138.29 1284.26 3114.78 C 1283.67 3078.37 1284.17 3041.97 1283.92 3005.56 C 1283.91 3004.16 1283.99 3002.76 1283.91 3001.36 C 1283.78 2998.83 1284.51 2997.16 1287.31 2996.54 C 1313.54 2990.70 1337.44 2979.30 1360.12 2965.43 C 1362.46 2967.60 1361.58 2969.99 1361.59 2972.10 C 1361.64 3025.88 1361.71 3079.66 1361.59 3133.45 C 1361.54 3156.73 1359.54 3179.85 1354.10 3202.58 C 1353.65 3204.48 1353.16 3206.38 1352.62 3208.26 C 1350.93 3214.12 1350.91 3214.27 1344.55 3213.91 C 1331.69 3213.19 1318.84 3212.29 1305.99 3211.49 C 1297.93 3210.98 1289.87 3210.53 1281.61 3210.05 Z"/>
<path style="--d:8" fill="#3b3b46" d="M 1189.43 2089.58 L 1189.43 2526.51 C 1186.80 2528.17 1185.52 2526.01 1184.05 2525.09 C 1173.34 2518.44 1162.82 2511.49 1152.00 2505.05 C 1148.35 2502.88 1147.24 2500.39 1147.25 2496.32 C 1147.35 2404.68 1147.02 2313.03 1147.48 2221.39 C 1147.66 2184.98 1158.31 2150.77 1173.26 2117.84 C 1177.72 2108.01 1182.33 2098.25 1189.43 2089.58 Z"/>
<path style="--d:14" fill="#4d4d5b" d="M 1360.37 2562.82 C 1362.52 2565.70 1361.59 2568.60 1361.60 2571.28 C 1361.66 2610.51 1361.60 2649.73 1361.70 2688.96 C 1361.71 2694.12 1360.77 2698.85 1358.72 2703.59 C 1342.57 2741.11 1326.57 2778.70 1310.46 2816.25 C 1308.83 2820.04 1307.45 2824.02 1304.06 2828.07 C 1305.89 2811.08 1307.76 2795.12 1309.30 2779.12 C 1311.51 2756.27 1313.69 2733.42 1315.48 2710.53 C 1318.09 2677.31 1320.10 2644.03 1320.57 2610.71 C 1320.74 2598.83 1322.96 2589.04 1335.29 2583.65 C 1340.25 2581.49 1344.20 2576.97 1348.49 2573.36 C 1352.51 2569.98 1356.37 2566.39 1360.37 2562.82 Z"/>
<path style="--d:1" fill="#3b3c46" d="M 1198.86 2779.19 C 1212.72 2783.68 1225.47 2787.83 1238.61 2790.53 C 1241.17 2791.06 1242.46 2792.52 1242.28 2795.25 C 1242.16 2797.20 1242.27 2799.17 1242.27 2801.13 C 1242.27 2846.25 1241.87 2891.37 1242.50 2936.48 C 1242.70 2951.04 1236.51 2962.83 1230.86 2976.17 C 1220.13 2965.93 1210.09 2956.26 1199.91 2946.73 C 1197.46 2944.44 1197.81 2941.74 1197.81 2938.98 C 1197.79 2921.89 1197.73 2904.80 1197.81 2887.70 C 1197.97 2853.80 1198.22 2819.90 1198.45 2786.00 C 1198.46 2784.10 1198.67 2782.20 1198.86 2779.19 Z"/>
<path style="--d:7" fill="#3d3d47" d="M 1148.83 2754.50 C 1160.90 2761.78 1173.07 2768.63 1186.07 2773.83 C 1188.51 2774.80 1189.49 2776.47 1189.24 2779.03 C 1189.13 2780.14 1189.22 2781.27 1189.22 2782.39 C 1189.22 2831.13 1189.22 2879.87 1189.22 2928.60 L 1189.22 2934.02 C 1186.53 2935.41 1185.68 2933.40 1184.57 2932.43 C 1173.62 2922.84 1162.79 2913.11 1151.77 2903.60 C 1148.84 2901.06 1147.21 2898.53 1147.22 2894.39 C 1147.37 2849.02 1147.31 2803.64 1147.33 2758.26 C 1147.33 2757.22 1147.03 2756.05 1148.83 2754.50 Z"/>
<path style="--d:12" fill="#4d4d5b" d="M 1284.24 2950.60 C 1283.64 2945.34 1284.00 2941.25 1285.06 2937.11 C 1291.98 2909.98 1296.35 2882.35 1300.17 2854.65 C 1300.75 2850.42 1302.18 2847.36 1305.60 2844.87 C 1324.88 2830.83 1342.64 2815.05 1359.09 2797.80 C 1359.43 2797.44 1360.07 2797.38 1360.60 2797.17 C 1362.40 2799.07 1361.59 2801.43 1361.60 2803.56 C 1361.68 2819.52 1361.59 2835.47 1361.68 2851.43 C 1361.70 2854.93 1361.00 2857.78 1358.46 2860.52 C 1332.77 2888.26 1309.17 2917.73 1286.85 2948.24 C 1286.40 2948.86 1285.70 2949.30 1284.24 2950.60 Z"/>
<path style="--d:3" fill="#3b3b46" d="M 1199.62 2633.73 C 1212.41 2636.58 1225.06 2638.62 1237.95 2638.40 C 1241.27 2638.35 1242.33 2639.73 1242.29 2642.89 C 1242.17 2650.72 1242.26 2658.55 1242.26 2666.38 C 1242.26 2690.15 1242.26 2713.92 1242.26 2737.69 C 1242.26 2740.44 1242.26 2743.19 1242.26 2745.56 C 1240.02 2747.08 1239.15 2745.66 1238.25 2744.80 C 1226.32 2733.41 1214.47 2721.94 1202.47 2710.61 C 1200.09 2708.36 1198.71 2706.10 1198.73 2702.68 C 1198.88 2680.87 1198.86 2659.05 1198.94 2637.24 C 1198.94 2636.18 1199.34 2635.11 1199.62 2633.73 Z"/>
<path style="--d:5" fill="#3d3d47" d="M 1147.55 3067.96 L 1147.55 2967.29 C 1149.70 2965.95 1151.41 2967.21 1153.18 2967.82 C 1162.97 2971.23 1172.88 2974.20 1183.14 2975.84 C 1187.14 2976.48 1189.32 2977.81 1189.24 2982.66 C 1188.92 3001.43 1189.10 3020.21 1189.12 3038.98 C 1189.12 3041.53 1189.07 3043.88 1187.01 3045.91 C 1177.12 3055.70 1166.18 3063.75 1152.51 3067.44 C 1151.20 3067.80 1149.78 3067.74 1147.55 3067.96 Z"/>
<path style="--d:2" fill="#3b3c46" d="M 1241.18 3034.88 C 1243.15 3036.71 1242.21 3039.09 1242.22 3041.19 C 1242.29 3071.46 1242.27 3101.74 1242.26 3132.01 C 1242.26 3133.41 1242.25 3134.82 1242.22 3136.22 C 1242.17 3138.55 1241.14 3139.77 1238.62 3139.75 C 1226.01 3139.70 1213.39 3139.71 1200.78 3139.75 C 1198.16 3139.76 1197.41 3138.35 1197.42 3136.05 C 1197.50 3119.79 1197.60 3103.54 1197.59 3087.28 C 1197.59 3084.80 1198.52 3083.04 1200.30 3081.48 C 1215.56 3068.07 1228.23 3052.42 1239.80 3035.83 C 1240.09 3035.41 1240.68 3035.21 1241.18 3034.88 Z"/>
<path style="--d:10" fill="#52515e" d="M 1312.38 2621.97 C 1306.80 2679.21 1298.06 2735.16 1286.42 2791.36 C 1282.65 2788.83 1283.67 2785.60 1283.66 2782.87 C 1283.58 2762.98 1283.62 2743.09 1283.62 2723.21 C 1283.62 2695.76 1283.60 2668.31 1283.63 2640.86 C 1283.64 2629.88 1282.96 2632.37 1291.69 2629.30 C 1298.26 2626.99 1304.82 2624.65 1312.38 2621.97 Z"/>
<path style="--d:6" fill="#3d3d47" d="M 1147.32 2607.75 C 1160.44 2616.96 1172.62 2624.23 1186.08 2629.08 C 1189.02 2630.14 1189.50 2632.18 1189.49 2634.94 C 1189.42 2655.34 1189.45 2675.74 1189.45 2696.06 C 1186.65 2697.07 1185.64 2694.89 1184.34 2693.72 C 1173.31 2683.83 1162.38 2673.83 1151.39 2663.89 C 1149.33 2662.02 1147.22 2660.48 1147.25 2657.10 C 1147.40 2641.22 1147.32 2625.33 1147.32 2607.75 Z"/>
<path style="--d:9" fill="#40404a" d="M 1189.12 3091.56 C 1189.12 3107.38 1189.07 3121.33 1189.16 3135.28 C 1189.18 3138.43 1188.12 3139.84 1184.82 3139.81 C 1173.62 3139.71 1162.42 3139.73 1151.23 3139.79 C 1148.35 3139.81 1147.13 3138.52 1147.30 3135.74 C 1147.32 3135.46 1147.29 3135.18 1147.30 3134.90 C 1147.34 3129.03 1145.98 3122.66 1147.82 3117.41 C 1149.66 3112.15 1156.89 3111.79 1161.66 3109.14 C 1170.66 3104.16 1179.07 3098.25 1189.12 3091.56 Z"/>
<path style="--d:0" fill="#40404a" d="M 1229.70 2978.61 C 1220.97 2998.09 1211.41 3015.48 1199.27 3031.55 C 1196.95 3029.74 1197.65 3027.95 1197.65 3026.43 C 1197.62 3012.15 1197.80 2997.86 1197.65 2983.58 C 1197.61 2979.57 1198.74 2978.30 1202.92 2978.49 C 1211.45 2978.88 1220.02 2978.61 1229.70 2978.61 Z"/>
<path style="--d:26" fill="#393a46" d="M 211.56 3018.95 C 215.17 3019.15 217.47 3021.86 220.22 3023.61 C 256.30 3046.54 294.78 3063.57 337.25 3070.27 C 376.43 3076.46 414.89 3073.68 452.17 3059.20 C 502.39 3039.69 554.28 3027.27 608.16 3024.51 C 644.57 3022.64 680.37 3026.50 714.49 3040.61 C 739.06 3050.76 760.02 3065.84 776.70 3086.59 C 787.95 3100.57 798.85 3114.82 809.88 3128.97 C 810.72 3130.05 811.35 3131.29 812.21 3132.65 C 806.50 3136.08 800.66 3138.93 795.96 3143.41 C 794.36 3144.94 792.77 3145.25 790.63 3144.54 C 774.46 3139.19 757.69 3138.35 740.84 3138.06 C 702.97 3137.42 665.23 3139.75 627.53 3143.04 C 598.22 3145.60 568.88 3147.78 539.57 3150.38 C 504.95 3153.45 470.31 3156.41 435.61 3158.04 C 403.70 3159.53 371.72 3160.63 339.82 3157.14 C 335.89 3156.71 332.09 3155.95 328.40 3154.59 C 267.05 3131.81 228.49 3088.45 211.87 3025.36 C 211.35 3023.38 209.98 3021.19 211.53 3018.99 L 211.56 3018.95 Z"/>
<path style="--d:24" fill="#393a46" d="M 331.20 3188.56 C 344.85 3189.54 356.47 3190.80 368.15 3190.90 C 402.35 3191.22 436.47 3190.23 470.59 3187.76 C 501.04 3185.55 531.45 3182.97 561.87 3180.49 C 593.12 3177.95 624.34 3174.99 655.62 3172.72 C 689.70 3170.24 723.83 3168.60 758.02 3170.58 C 758.30 3170.59 758.59 3170.56 758.86 3170.62 C 763.74 3171.72 770.29 3170.13 773.20 3173.70 C 776.01 3177.14 771.61 3182.39 770.66 3186.90 C 768.28 3198.17 766.85 3209.56 766.96 3221.06 C 767.00 3225.23 765.69 3226.87 761.49 3227.63 C 710.27 3236.91 658.97 3245.56 607.23 3251.56 C 563.29 3256.66 519.29 3261.18 475.33 3266.00 C 449.23 3268.87 424.62 3264.29 401.38 3252.05 C 373.28 3237.24 351.47 3215.53 331.20 3188.56 Z"/>
<path style="--d:22" fill="#393a46" d="M 492.70 3296.77 C 500.08 3294.25 508.01 3294.57 515.69 3293.80 C 552.73 3290.10 589.72 3285.93 626.65 3281.29 C 672.45 3275.54 718.23 3269.57 763.48 3260.22 C 770.25 3258.82 770.00 3259.61 770.94 3265.32 C 774.30 3285.77 779.48 3305.82 786.06 3325.46 C 787.56 3329.94 786.72 3331.82 782.46 3333.67 C 737.16 3353.35 690.43 3366.99 640.60 3367.59 C 603.12 3368.04 567.79 3360.21 535.98 3339.47 C 519.87 3328.96 506.14 3315.89 494.37 3300.72 C 493.53 3299.63 492.45 3298.65 492.70 3296.77 Z"/>
<path style="--d:27" fill="#393a46" d="M 211.53 3018.99 C 210.94 3019.51 210.54 3019.38 210.45 3018.61 C 210.42 3018.39 210.61 3017.94 210.72 3017.93 C 211.38 3017.91 211.66 3018.29 211.56 3018.95 C 211.56 3018.95 211.53 3018.99 211.53 3018.99 Z"/>
<path style="--d:25" fill="#393a46" d="M 2199.00 3066.24 C 2196.06 3084.45 2188.56 3100.20 2177.72 3114.40 C 2162.27 3134.65 2142.24 3149.38 2119.54 3160.34 C 2109.67 3165.10 2098.37 3165.35 2087.61 3167.01 C 2037.56 3174.70 1987.19 3175.48 1936.71 3173.85 C 1888.53 3172.29 1840.56 3167.93 1792.69 3162.40 C 1749.01 3157.35 1705.37 3152.03 1661.65 3147.37 C 1638.27 3144.88 1614.80 3142.81 1591.21 3143.69 C 1582.80 3144.01 1574.47 3144.90 1566.22 3146.60 C 1564.26 3147.00 1561.65 3148.78 1560.17 3146.05 C 1558.90 3143.69 1560.94 3141.82 1562.23 3140.07 C 1567.57 3132.82 1573.77 3126.37 1580.68 3120.59 C 1604.86 3100.36 1633.13 3088.63 1663.39 3081.33 C 1702.39 3071.92 1742.00 3070.19 1781.93 3072.55 C 1825.66 3075.14 1868.68 3082.34 1911.32 3092.09 C 1955.10 3102.11 1999.32 3109.01 2044.33 3109.46 C 2080.41 3109.83 2115.91 3105.96 2149.97 3093.11 C 2165.79 3087.14 2180.52 3079.19 2193.82 3068.67 C 2195.07 3067.68 2196.01 3066.01 2199.00 3066.24 Z"/>
<path style="--d:23" fill="#393a46" d="M 2091.59 3199.33 C 2078.14 3217.19 2065.65 3234.02 2047.72 3245.73 C 2033.18 3255.23 2018.47 3264.48 2003.95 3274.00 C 1986.18 3285.65 1966.52 3291.38 1945.55 3293.11 C 1907.93 3296.23 1870.57 3293.07 1833.25 3288.56 C 1775.32 3281.56 1718.32 3269.95 1662.10 3254.45 C 1637.27 3247.61 1612.80 3239.71 1589.04 3229.57 C 1579.93 3225.69 1574.45 3220.41 1573.19 3210.31 C 1572.16 3202.02 1569.75 3193.89 1568.15 3185.66 C 1566.99 3179.69 1567.40 3178.92 1573.50 3177.71 C 1579.25 3176.56 1585.07 3175.71 1590.99 3175.55 C 1615.71 3174.86 1640.26 3177.12 1664.76 3179.88 C 1695.10 3183.28 1725.40 3187.00 1755.73 3190.39 C 1786.07 3193.78 1816.40 3197.32 1846.79 3200.07 C 1883.07 3203.36 1919.41 3205.63 1955.87 3206.23 C 1977.46 3206.57 1999.02 3206.23 2020.56 3205.42 C 2042.68 3204.60 2064.73 3202.71 2086.63 3199.35 C 2087.72 3199.19 2088.86 3199.33 2091.59 3199.33 Z"/>
<path style="--d:21" fill="#393a46" d="M 1951.17 3325.38 C 1950.83 3327.99 1948.98 3328.91 1947.58 3330.07 C 1909.95 3361.48 1866.99 3381.29 1818.59 3389.27 C 1785.69 3394.69 1752.82 3393.99 1719.82 3389.65 C 1690.09 3385.73 1660.46 3381.49 1631.42 3373.89 C 1615.69 3369.77 1600.21 3364.93 1585.88 3356.97 C 1582.43 3355.05 1580.37 3352.99 1580.86 3348.46 C 1583.90 3320.48 1583.03 3292.51 1579.83 3264.59 C 1579.71 3263.56 1580.04 3262.49 1580.21 3260.99 C 1591.32 3265.04 1601.98 3269.22 1612.82 3272.83 C 1661.52 3289.07 1711.39 3300.62 1761.81 3309.98 C 1798.18 3316.73 1834.79 3321.86 1871.69 3324.55 C 1896.01 3326.33 1920.38 3327.16 1944.76 3325.24 C 1946.85 3325.07 1949.03 3324.55 1951.17 3325.38 Z"/>
<path style="--d:34" fill="#34a659" d="M 1267.40 2991.85 C 1266.98 2989.07 1268.37 2987.87 1269.29 2986.54 C 1303.71 2936.27 1340.68 2888.05 1384.07 2845.08 C 1402.83 2826.50 1422.79 2809.31 1445.90 2796.22 C 1457.17 2789.83 1468.88 2784.48 1481.95 2783.03 C 1497.68 2781.27 1502.75 2787.11 1498.75 2802.59 C 1495.92 2813.55 1490.86 2823.63 1484.67 2832.97 C 1444.20 2894.00 1392.06 2942.14 1326.34 2974.99 C 1309.73 2983.30 1292.08 2988.83 1273.57 2991.28 C 1271.65 2991.53 1269.71 2991.64 1267.40 2991.85 Z"/>
<path style="--d:40" fill="#34a659" d="M 1300.88 2617.68 C 1288.67 2623.21 1276.58 2626.36 1264.23 2628.48 C 1209.45 2637.86 1164.44 2619.63 1127.93 2579.03 C 1106.08 2554.74 1090.44 2526.80 1082.70 2494.80 C 1079.75 2482.60 1081.94 2480.58 1094.14 2484.38 C 1108.12 2488.74 1120.93 2495.71 1133.57 2502.94 C 1169.84 2523.67 1204.22 2547.30 1238.24 2571.46 C 1256.96 2584.75 1275.39 2598.45 1293.92 2612.00 C 1296.14 2613.62 1298.19 2615.48 1300.88 2617.68 Z"/>
<path style="--d:41" fill="#34a659" d="M 1420.81 2266.07 C 1423.90 2268.46 1423.78 2271.85 1424.14 2274.72 C 1431.63 2334.17 1431.82 2393.27 1414.71 2451.38 C 1401.79 2495.23 1380.33 2534.03 1346.24 2565.17 C 1340.10 2570.79 1333.79 2576.24 1325.64 2580.78 C 1326.41 2572.15 1328.69 2564.95 1330.44 2557.66 C 1347.58 2486.31 1365.91 2415.28 1387.76 2345.21 C 1394.27 2324.34 1401.08 2303.56 1410.00 2283.57 C 1412.78 2277.34 1415.07 2270.60 1420.81 2266.07 Z"/>
<path style="--d:37" fill="#34a659" d="M 1315.70 2827.56 C 1313.89 2825.21 1315.76 2823.34 1316.60 2821.43 C 1348.48 2749.24 1377.30 2675.72 1410.75 2604.21 C 1418.58 2587.47 1426.50 2570.77 1436.48 2555.16 C 1438.51 2551.97 1440.30 2548.48 1444.57 2545.70 C 1445.27 2551.46 1446.12 2556.31 1446.41 2561.19 C 1449.24 2608.56 1440.39 2653.70 1420.09 2696.55 C 1395.55 2748.36 1359.89 2791.32 1315.61 2827.37 L 1315.70 2827.56 Z"/>
<path style="--d:38" fill="#34a659" d="M 1269.99 2788.67 C 1254.88 2786.95 1240.70 2783.81 1226.67 2779.95 C 1195.89 2771.50 1166.83 2759.27 1141.34 2739.66 C 1105.00 2711.72 1085.19 2674.97 1083.02 2628.99 C 1082.96 2627.87 1082.95 2626.74 1083.01 2625.63 C 1083.04 2625.08 1083.29 2624.55 1083.52 2623.72 C 1087.69 2623.36 1090.75 2626.00 1093.94 2627.98 C 1104.93 2634.79 1114.97 2642.89 1124.85 2651.17 C 1165.27 2685.03 1203.33 2721.48 1241.07 2758.25 C 1249.30 2766.27 1257.57 2774.26 1265.73 2782.35 C 1267.25 2783.85 1269.36 2785.00 1269.99 2788.67 Z"/>
<path style="--d:33" fill="#3ca85c" d="M 1304.75 2749.91 C 1301.12 2790.66 1296.41 2831.28 1290.23 2871.73 C 1284.34 2910.31 1276.75 2948.38 1259.96 2984.08 C 1241.85 3022.59 1219.03 3057.47 1185.41 3084.35 C 1171.11 3095.79 1155.64 3105.26 1138.25 3111.19 C 1136.10 3109.35 1137.34 3107.46 1137.80 3105.72 C 1140.01 3097.32 1142.32 3088.95 1144.56 3080.57 C 1145.24 3078.05 1146.05 3076.14 1149.26 3075.59 C 1172.94 3071.47 1189.22 3056.32 1203.39 3038.41 C 1218.63 3019.16 1229.83 2997.50 1239.61 2975.09 C 1259.74 2928.96 1273.54 2880.79 1285.03 2831.92 C 1290.93 2806.85 1296.91 2781.79 1300.36 2756.21 C 1300.66 2754.04 1301.56 2751.94 1302.18 2749.81 C 1303.04 2749.84 1303.89 2749.87 1304.75 2749.91 Z"/>
<path style="--d:35" fill="#34a659" d="M 1213.13 2971.63 C 1203.13 2972.08 1193.34 2970.29 1183.62 2968.42 C 1153.87 2962.67 1127.06 2950.90 1105.58 2928.84 C 1091.25 2914.13 1081.47 2896.70 1075.79 2876.98 C 1074.64 2873.00 1072.50 2867.98 1075.67 2865.02 C 1079.39 2861.52 1084.11 2864.91 1088.03 2866.76 C 1099.75 2872.28 1110.14 2879.92 1120.33 2887.79 C 1152.27 2912.44 1181.92 2939.71 1210.93 2967.70 C 1211.86 2968.59 1213.27 2969.27 1213.13 2971.63 Z"/>
<path style="--d:39" fill="#7abb84" d="M 1304.75 2749.91 C 1303.89 2749.87 1303.04 2749.84 1302.18 2749.81 C 1302.55 2740.91 1305.16 2732.39 1306.61 2722.29 C 1306.61 2722.55 1307.91 2724.01 1306.85 2723.64 C 1306.64 2732.43 1306.59 2741.24 1304.75 2749.91 Z"/>
<path style="--d:36" fill="#34a659" d="M 1315.61 2827.37 C 1315.21 2827.51 1314.81 2827.65 1314.42 2827.79 C 1314.66 2826.80 1315.10 2826.77 1315.70 2827.54 C 1315.70 2827.56 1315.61 2827.37 1315.61 2827.37 Z"/>
<path style="--d:29" fill="#135b8f" d="M 972.86 3234.81 C 1000.70 3257.50 1034.78 3266.60 1067.85 3278.44 C 1064.71 3283.57 1061.48 3288.17 1058.93 3293.11 C 1053.18 3304.28 1049.75 3315.91 1052.71 3328.71 C 1057.30 3348.60 1076.34 3361.55 1096.39 3357.46 C 1115.03 3353.66 1133.49 3348.95 1152.34 3346.18 C 1190.84 3340.54 1229.27 3339.43 1267.70 3347.04 C 1278.30 3349.14 1287.94 3353.48 1297.52 3358.08 C 1329.27 3373.32 1358.30 3392.79 1385.39 3415.20 C 1389.04 3418.23 1392.32 3421.74 1395.52 3425.26 C 1404.38 3435.01 1412.78 3445.20 1422.79 3453.82 C 1425.87 3456.47 1425.68 3458.71 1423.69 3461.64 C 1421.16 3465.39 1418.19 3468.69 1414.64 3471.51 C 1405.29 3478.93 1394.82 3484.16 1383.32 3487.19 C 1378.83 3488.37 1376.04 3490.18 1375.38 3495.33 C 1374.46 3502.55 1369.24 3507.02 1363.47 3510.80 C 1350.86 3519.08 1336.71 3523.48 1322.24 3527.00 C 1318.17 3527.99 1314.02 3528.69 1309.87 3529.30 C 1305.69 3529.90 1302.26 3531.18 1301.64 3536.03 C 1301.60 3536.30 1301.41 3536.55 1301.33 3536.81 C 1294.72 3556.73 1280.39 3562.50 1260.32 3560.20 C 1254.82 3559.56 1249.25 3556.10 1244.11 3556.80 C 1239.17 3557.48 1236.84 3564.08 1232.56 3567.27 C 1225.59 3572.47 1217.64 3574.93 1209.17 3575.77 C 1200.79 3576.60 1192.38 3576.64 1184.09 3574.69 C 1180.16 3573.77 1176.43 3574.36 1172.53 3575.37 C 1157.50 3579.26 1142.32 3581.48 1126.85 3577.92 C 1117.30 3575.73 1109.68 3570.94 1102.89 3563.54 C 1080.74 3539.39 1055.17 3520.39 1022.29 3513.09 C 1013.60 3511.17 1006.68 3505.67 1000.04 3500.00 C 986.31 3488.29 974.82 3474.52 963.96 3460.21 C 958.55 3453.07 953.28 3445.80 948.34 3438.32 C 942.17 3428.99 935.74 3420.27 926.94 3412.85 C 912.39 3400.58 908.73 3383.28 909.18 3364.91 C 909.51 3351.04 912.59 3337.68 917.12 3324.68 C 927.37 3295.28 942.61 3268.66 962.67 3244.82 C 965.72 3241.19 968.79 3237.54 972.86 3234.81 Z"/>
<path style="--d:30" fill="#135b8f" d="M 1535.47 3186.46 C 1538.26 3197.29 1539.84 3208.56 1541.63 3219.77 C 1546.81 3252.14 1551.19 3284.61 1550.76 3317.49 C 1550.62 3328.12 1549.57 3338.73 1548.92 3349.35 C 1548.75 3352.22 1547.79 3354.75 1545.90 3357.01 C 1526.48 3380.29 1506.24 3402.76 1481.68 3420.87 C 1475.13 3425.70 1468.15 3429.79 1460.50 3432.77 C 1454.02 3435.30 1448.68 3434.25 1443.57 3429.51 C 1435.33 3421.86 1427.98 3413.41 1420.54 3405.04 C 1396.53 3378.01 1369.86 3354.30 1337.39 3337.75 C 1308.85 3323.21 1278.53 3314.86 1246.75 3311.54 C 1196.52 3306.29 1147.29 3312.59 1098.50 3324.23 C 1096.33 3324.75 1094.18 3325.42 1091.97 3325.79 C 1086.23 3326.75 1082.78 3323.39 1083.81 3317.59 C 1084.49 3313.72 1086.04 3310.10 1088.04 3306.68 C 1092.61 3298.85 1098.80 3292.41 1104.92 3285.83 C 1125.22 3263.99 1151.28 3254.29 1179.83 3249.56 C 1222.59 3242.49 1265.55 3240.63 1308.78 3243.88 C 1330.00 3245.48 1351.27 3246.94 1372.53 3247.33 C 1397.65 3247.79 1422.07 3242.48 1446.01 3235.29 C 1478.07 3225.67 1507.38 3210.90 1532.11 3187.90 C 1532.91 3187.16 1533.63 3186.18 1535.47 3186.46 Z"/>
<path style="--d:28" fill="#135b8f" d="M 878.19 3388.13 C 871.15 3381.75 865.49 3376.86 860.10 3371.69 C 848.57 3360.64 837.68 3348.96 827.05 3337.04 C 823.45 3333.01 820.81 3328.63 819.04 3323.48 C 809.38 3295.32 802.10 3266.62 799.41 3236.93 C 798.04 3221.82 798.35 3206.68 802.52 3191.92 C 806.89 3176.48 815.48 3164.77 831.56 3159.79 C 834.44 3158.90 836.67 3158.63 839.28 3160.72 C 860.95 3178.00 886.64 3185.46 913.23 3190.61 C 919.27 3191.77 925.39 3192.55 931.38 3193.93 C 940.04 3195.92 947.45 3200.16 952.94 3207.01 C 953.21 3209.45 951.38 3210.17 950.29 3211.29 C 915.83 3246.51 892.54 3287.98 880.87 3335.88 C 877.74 3348.73 876.63 3361.80 877.54 3375.03 C 877.79 3378.65 877.91 3382.28 878.19 3388.13 Z"/>
<path style="--d:31" fill="#155c90" d="M 1196.11 3219.19 C 1179.05 3219.18 1161.98 3219.31 1144.92 3219.13 C 1134.84 3219.03 1128.22 3212.45 1128.22 3203.14 C 1128.22 3194.84 1134.19 3188.16 1142.46 3187.31 C 1144.12 3187.14 1145.81 3187.24 1147.49 3187.24 C 1180.22 3187.24 1212.95 3187.23 1245.68 3187.25 C 1248.73 3187.26 1251.79 3187.00 1254.77 3188.23 C 1261.88 3191.18 1266.13 3198.39 1264.90 3205.70 C 1263.66 3213.06 1257.61 3218.82 1249.82 3219.07 C 1239.20 3219.42 1228.56 3219.18 1217.93 3219.19 C 1210.66 3219.20 1203.38 3219.19 1196.11 3219.19 Z"/>
<path style="--d:32" fill="#155c90" d="M 1197.08 3146.86 C 1214.15 3146.85 1231.22 3147.16 1248.27 3146.73 C 1256.99 3146.50 1265.03 3153.66 1265.31 3161.75 C 1265.62 3170.33 1259.75 3177.66 1251.18 3178.65 C 1248.14 3179.00 1245.03 3178.80 1241.95 3178.80 C 1211.46 3178.81 1180.97 3178.81 1150.49 3178.80 C 1148.25 3178.80 1146.00 3178.92 1143.77 3178.76 C 1134.96 3178.11 1128.47 3171.41 1128.38 3162.99 C 1128.29 3154.10 1134.86 3147.06 1144.22 3146.93 C 1161.84 3146.69 1179.46 3146.86 1197.08 3146.86 Z"/>
</g>
</g></svg>