<svg width="110" height="110" viewBox="0 0 110 110" fill="none" xmlns="http://www.w3.org/2000/svg">
<rect width="110" height="110" fill="#F5F5F5"/>
<g id="1">
<path d="M-5499.12 -797.5C-5499.12 -798.605 -5498.22 -799.5 -5497.12 -799.5H2259.88C2260.98 -799.5 2261.88 -798.605 2261.88 -797.5V403.5C2261.88 404.605 2260.98 405.5 2259.88 405.5H-5497.12C-5498.22 405.5 -5499.12 404.605 -5499.12 403.5V-797.5Z" fill="#F5F5F5"/>
<path d="M-5497.12 -799.5V-774.5H2259.88V-799.5V-824.5H-5497.12V-799.5ZM2261.88 -797.5H2236.88V403.5H2261.88H2286.88V-797.5H2261.88ZM2259.88 405.5V380.5H-5497.12V405.5V430.5H2259.88V405.5ZM-5499.12 403.5H-5474.12V-797.5H-5499.12H-5524.12V403.5H-5499.12ZM-5497.12 405.5V380.5C-5484.41 380.5 -5474.12 390.801 -5474.12 403.5H-5499.12H-5524.12C-5524.12 418.408 -5512.04 430.5 -5497.12 430.5V405.5ZM2261.88 403.5H2236.88C2236.88 390.797 2247.18 380.5 2259.88 380.5V405.5V430.5C2274.79 430.5 2286.88 418.412 2286.88 403.5H2261.88ZM2259.88 -799.5V-774.5C2247.17 -774.5 2236.88 -784.801 2236.88 -797.5H2261.88H2286.88C2286.88 -812.408 2274.8 -824.5 2259.88 -824.5V-799.5ZM-5497.12 -799.5V-824.5C-5512.03 -824.5 -5524.12 -812.412 -5524.12 -797.5H-5499.12H-5474.12C-5474.12 -784.797 -5484.42 -774.5 -5497.12 -774.5V-799.5Z" fill="#FF0000"/>
<g id="Storyboard - Frame 129" filter="url(#filter0_d_484_571)">
<rect width="375" height="770" transform="translate(-241.347 -582)" fill="white"/>
<g id="Frame 1984078658">
<g clip-path="url(#clip0_484_571)">
<rect width="109.09" height="109.09" rx="0" fill="#F4F4F4"/>
<path id="Vector 35" d="M90.9935 83.9471H92.4345L91.6637 82.7072L92.9371 82.238L92.7026 81.7353L92.9371 81.1321V79.6241L92.1999 79.2219L91.1945 79.0209H90.0216L89.0833 78.3841L87.7093 79.0209L87.3407 78.3841L85.8327 77.1777L85.3635 77.7139H84.2241L82.8501 78.6522L81.7778 78.3841V79.2219L80.0352 79.6241V81.1321L81.2751 82.238L82.6826 83.0422L84.4922 83.9471L85.8327 84.5167H87.3407L88.9157 84.1481L89.8206 83.0422L90.0216 81.7353L90.9935 83.9471Z" fill="#E1EFEC"/>
<path id="Vector 34" d="M61.6084 112.056L63.1399 107.759L62.782 104.753L63.7842 98.6676L68.1512 92.9405L72.5897 90.7927L75.5249 88.1439L76.6703 86.4974H78.1737L79.2476 84.4928H80.2498L81.8242 83.4638L82.7408 83.7029L84.6536 82.7864L86.5265 83.7029L87.4431 83.4638V80.9931L87.0047 77.8051L84.1754 76.8486H80.9874L76.6703 75.2546L73.0916 72.7982L70.7606 75.8617L66.1653 76.2612L64.5669 75.2546V73.2643L63.7842 71.9323L65.6991 71.1332L69.2954 70.4671L70.4276 67.67L68.1512 65.1392L66.1653 61.5429L67.4306 59.9446L68.1512 55.8154L66.1653 48.4895L67.1487 46.6993L66.667 44.4914L66.9078 42.9256L65.9042 42.1628L64.3787 40.2358L64.8604 37.6264L66.1653 37.2651L68.8348 34.3344L69.9188 33.933L70.4808 31.0023L68.8348 29.1958L69.6377 23.5754L71.4443 22.4513L72.2071 19.6411L71.4443 19.039L72.4881 17.1521L73.3312 12.8566L75.78 9.76523L77.8275 9.24341L86.7398 2.29822L89.0281 4.54636L92.5208 6.43321L98.4623 5.38942L100.711 6.75437L102.437 7.43685L102.637 9.24341L103.762 11.1303L102.919 13.7397L103.762 15.5864L105.448 16.6302L107.335 16.0682L108.82 16.6302L110.506 17.674" stroke="#7E7E7E" stroke-width="0.564276" stroke-dasharray="2.26 2.26"/>
<path id="Vector 33" d="M31.8178 87.7463L26.7389 92.7986L1.92035 142.014L-11.7266 -4.651H61.1618L60.5959 -0.124053L59.5451 3.67536L58.8175 8.76808L56.9583 16.5285L55.099 25.4206L50.6529 41.588V43.2857L47.7428 51.3694L46.7727 52.0969L43.2159 63.8991L42.165 65.031L38.0423 74.4889L31.8178 87.7463Z" fill="#DCDCDC"/>
<path id="Vector 32" d="M102.016 106.542L101.155 112.697H111.095L110.331 83.823L108.716 86.245L106.354 88.0691V90.9997L105.277 93.4816L104.44 93.8404L105.098 95.0066L103.303 96.4121L103.931 97.1297L103.094 97.7576L102.795 99.0734L103.716 101.115L102.016 102.815L102.605 104.842H102.016V106.542Z" fill="#DCDCDC"/>
<path id="Vector" d="M91.0112 0.527588C88.5039 0.527588 86.8906 2.52397 86.8906 4.9887C86.8906 7.8106 89.1211 8.82541 90.5003 9.93534C90.7794 10.2381 91.243 10.2381 91.5221 9.93534C92.8395 8.87623 95.1318 7.8106 95.1318 4.9887C95.1318 2.52397 93.5185 0.527588 91.0112 0.527588Z" fill="#007658"/>
<path id="Vector_2" d="M80.0708 19.2422C77.5635 19.2422 75.9502 21.2386 75.9502 23.7033C75.9502 26.5252 78.1807 27.54 79.5599 28.6499C79.839 28.9527 80.3026 28.9527 80.5817 28.6499C81.8991 27.5908 84.1914 26.5252 84.1914 23.7033C84.1914 21.2386 82.5781 19.2422 80.0708 19.2422Z" fill="#007658"/>
<path id="Vector_3" d="M94.7544 31.9103C92.2471 31.9103 90.6338 33.9067 90.6338 36.3714C90.6338 39.1933 92.8643 40.2081 94.2435 41.318C94.5226 41.6208 94.9862 41.6208 95.2653 41.318C96.5826 40.2589 98.875 39.1933 98.875 36.3714C98.875 33.9067 97.2617 31.9103 94.7544 31.9103Z" fill="#007658"/>
<path id="Vector_4" d="M79.7827 49.4478C77.2754 49.4478 75.6621 51.4441 75.6621 53.9089C75.6621 56.7308 77.8926 57.7456 79.2718 58.8555C79.5509 59.1583 80.0145 59.1583 80.2936 58.8555C81.611 57.7964 83.9033 56.7308 83.9033 53.9089C83.9033 51.4441 82.29 49.4478 79.7827 49.4478Z" fill="#007658"/>
<path id="Vector_5" d="M101.211 62.4039C98.7041 62.4039 97.0908 64.4003 97.0908 66.865C97.0908 69.6869 99.3213 70.7018 100.7 71.8117C100.98 72.1145 101.443 72.1145 101.722 71.8117C103.04 70.7526 105.332 69.6869 105.332 66.865C105.332 64.4003 103.719 62.4039 101.211 62.4039Z" fill="#007658"/>
<path id="Vector_6" d="M95.4536 85.4374C92.9463 85.4374 91.333 87.4338 91.333 89.8985C91.333 92.7204 93.5635 93.7352 94.9427 94.8451C95.2218 95.1479 95.6854 95.1479 95.9645 94.8451C97.2819 93.786 99.5742 92.7204 99.5742 89.8985C99.5742 87.4338 97.9609 85.4374 95.4536 85.4374Z" fill="#007658"/>
<path id="Vector_7" d="M76.2476 92.635C73.7402 92.635 72.127 94.6314 72.127 97.0961C72.127 99.918 74.3575 100.933 75.7366 102.043C76.0157 102.346 76.4794 102.346 76.7585 102.043C78.0758 100.984 80.3682 99.918 80.3682 97.0961C80.3682 94.6314 78.7549 92.635 76.2476 92.635Z" fill="#007658"/>
<path id="Vector_8" d="M88.0522 97.6351C85.5449 97.6351 83.9316 99.6315 83.9316 102.096C83.9316 104.918 86.1621 105.933 87.5413 107.043C87.8204 107.346 88.284 107.346 88.5632 107.043C89.8805 105.984 92.1728 104.918 92.1728 102.096C92.1728 99.6315 90.5595 97.6351 88.0522 97.6351Z" fill="#007658"/>
<path id="&#215;&#153;&#215;&#168;&#215;&#149;&#215;&#169;&#215;&#156;&#215;&#153;&#215;&#157;" d="M60.4009 84.5167V78.7567H59.5369V77.3287H63.8329C66.2809 77.3287 67.1329 78.1447 67.1329 80.4847V84.5167H60.4009ZM61.9849 83.1007H65.5489V80.4967C65.5489 79.0447 65.0689 78.7567 63.7849 78.7567H61.9849V83.1007ZM68.8129 81.2647V78.7567H67.9489V77.3287H70.4209V81.2647H68.8129ZM73.4063 84.5167L75.2183 78.7567H71.7143V76.0807H73.2743V77.3287H76.9223V78.5647L75.0383 84.5167H73.4063ZM81.1616 81.2767C80.6216 81.2767 80.1776 81.1447 79.8656 80.8807C80.0816 82.3087 81.1016 83.1727 82.4936 83.1727C84.1016 83.1727 85.1936 81.9847 85.1936 80.2807V77.3287H86.7896V80.2567C86.7896 82.8247 85.0496 84.6367 82.5296 84.6367C80.0336 84.6367 78.2816 82.8487 78.2816 80.2567V77.3287H79.8896V79.5967C80.0696 79.9087 80.4416 80.0767 80.9216 80.0767C81.6296 80.0767 82.0016 79.6207 82.0016 78.8407V77.3287H83.4296V78.8527C83.4296 80.3527 82.5536 81.2767 81.1616 81.2767ZM88.7485 84.5167V78.7567H87.8845V77.3287H90.3565V84.5167H88.7485ZM95.4974 84.5167V80.6887C95.4974 79.1407 94.9214 78.7567 93.5294 78.7567H91.7774V77.3287H93.6854C96.2414 77.3287 97.1054 78.1927 97.1054 80.6407V84.5167H95.4974ZM98.7895 81.2647V78.7567H97.9255V77.3287H100.398V81.2647H98.7895Z" fill="black"/>
</g>
</g>
</g>
</g>
<defs>
<filter id="filter0_d_484_571" x="-261.347" y="-602" width="415" height="810" filterUnits="userSpaceOnUse" color-interpolation-filters="sRGB">
<feFlood flood-opacity="0" result="BackgroundImageFix"/>
<feColorMatrix in="SourceAlpha" type="matrix" values="0 0 0 0 0 0 0 0 0 0 0 0 0 0 0 0 0 0 127 0" result="hardAlpha"/>
<feOffset/>
<feGaussianBlur stdDeviation="10"/>
<feComposite in2="hardAlpha" operator="out"/>
<feColorMatrix type="matrix" values="0 0 0 0 0 0 0 0 0 0 0 0 0 0 0 0 0 0 0.12 0"/>
<feBlend mode="normal" in2="BackgroundImageFix" result="effect1_dropShadow_484_571"/>
<feBlend mode="normal" in="SourceGraphic" in2="effect1_dropShadow_484_571" result="shape"/>
</filter>
<clipPath id="clip0_484_571">
<rect width="109.09" height="109.09" rx="0" fill="white"/>
</clipPath>
</defs>
</svg>
