<svg width="110" height="110" viewBox="0 0 110 110" fill="none" xmlns="http://www.w3.org/2000/svg">
<rect width="110" height="110" fill="#F5F5F5"/>
<g id="1">
<path d="M-3527.35 -797.5C-3527.35 -798.605 -3526.45 -799.5 -3525.35 -799.5H4231.65C4232.76 -799.5 4233.65 -798.605 4233.65 -797.5V403.5C4233.65 404.605 4232.76 405.5 4231.65 405.5H-3525.35C-3526.45 405.5 -3527.35 404.605 -3527.35 403.5V-797.5Z" fill="#F5F5F5"/>
<path d="M-3525.35 -799.5V-774.5H4231.65V-799.5V-824.5H-3525.35V-799.5ZM4233.65 -797.5H4208.65V403.5H4233.65H4258.65V-797.5H4233.65ZM4231.65 405.5V380.5H-3525.35V405.5V430.5H4231.65V405.5ZM-3527.35 403.5H-3502.35V-797.5H-3527.35H-3552.35V403.5H-3527.35ZM-3525.35 405.5V380.5C-3512.64 380.5 -3502.35 390.801 -3502.35 403.5H-3527.35H-3552.35C-3552.35 418.408 -3540.26 430.5 -3525.35 430.5V405.5ZM4233.65 403.5H4208.65C4208.65 390.797 4218.95 380.5 4231.65 380.5V405.5V430.5C4246.56 430.5 4258.65 418.412 4258.65 403.5H4233.65ZM4231.65 -799.5V-774.5C4218.95 -774.5 4208.65 -784.801 4208.65 -797.5H4233.65H4258.65C4258.65 -812.408 4246.57 -824.5 4231.65 -824.5V-799.5ZM-3525.35 -799.5V-824.5C-3540.26 -824.5 -3552.35 -812.412 -3552.35 -797.5H-3527.35H-3502.35C-3502.35 -784.797 -3512.64 -774.5 -3525.35 -774.5V-799.5Z" fill="#FF0000"/>
<g id="Storyboard - Frame 128" filter="url(#filter0_d_484_571)">
<rect width="375" height="770" transform="translate(-241.347 -582)" fill="white"/>
<g id="Frame 1984078657">
<g clip-path="url(#clip0_484_571)">
<rect width="109.09" height="109.09" rx="0" fill="white"/>
<rect id="Rectangle 10313" x="-22.8516" y="-29.9701" width="167.39" height="169.03" fill="#F4F4F4"/>
<path id="Vector 44" d="M9.34082 49.0689L11.3124 66.1217L67.932 67.6551L77.7562 43.3158L84.6597 31.5445L85.8103 26.8538L80.0573 30.925L29.3432 49.0689H9.34082Z" fill="#DCDCDC"/>
<path id="&#215;&#162;&#215;&#150;&#215;&#168;&#215;&#153;&#215;&#144;&#215;&#156;&#215;&#153;" d="M66.366 79.4226V78.422H66.0213V77.8523H67.0075V79.4226H66.366ZM68.1986 80.7201L68.9215 78.422H67.5235V77.3544H68.1459V77.8523H69.6014V78.3454L68.8497 80.7201H68.1986ZM70.2346 80.7201V77.8523H70.8235L71.8433 79.0779C72.1114 78.9965 72.279 78.7907 72.279 78.3933V77.8523H72.9205V78.3694C72.9205 78.9918 72.5375 79.3939 72.1449 79.4897L73.1264 80.7201H72.3699L70.7996 78.6997L70.8187 79.1593V80.7201H70.2346ZM73.6971 79.4226V78.422H73.3523V77.8523H74.3386V79.4226H73.6971ZM76.3484 80.7201V79.1928C76.3484 78.5752 76.1186 78.422 75.5632 78.422H74.8642V77.8523H75.6254C76.6452 77.8523 76.9899 78.197 76.9899 79.1737V80.7201H76.3484ZM78.19 80.7201L77.8597 78.4172H77.3378V77.8523H79.1715V78.4172H78.4964L78.8316 80.7201H78.19ZM79.6242 80.7201V80.1552H80.3998L79.5237 77.8523H80.2131L81.0174 80.069C81.4962 79.9014 81.6734 79.4801 81.6734 78.7428V77.8523H82.3005V78.7141C82.3005 80.0067 81.7164 80.7201 80.4238 80.7201H79.6242Z" fill="black"/>
<path id="&#215;&#170;&#215;&#156; &#215;&#144;&#215;&#145;&#215;&#153;&#215;&#145;" d="M33.0134 15.8112V14.9234H35.3457V13.3284C35.3457 12.388 34.9921 12.1999 34.2472 12.1999H33.0134V11.3046H34.3751C35.8121 11.3046 36.3463 11.8087 36.3463 13.3134V14.9234H36.9933V15.8112H33.0134ZM37.5192 13.7723V12.1999H36.9775V11.3046H38.5273V13.7723H37.5192ZM39.3833 15.8112V14.9234H41.7156V13.3284C41.7156 12.388 41.362 12.1999 40.6172 12.1999H39.3833V11.3046H40.7451C42.1821 11.3046 42.7162 11.8087 42.7162 13.3134V14.9234H43.3633V15.8112H39.3833ZM44.1643 15.8112V11.3046H45.0896L46.6921 13.2306C47.1135 13.1027 47.3768 12.7792 47.3768 12.1548V11.3046H48.3849V12.1171C48.3849 13.0952 47.783 13.7272 47.1661 13.8776L48.7084 15.8112H47.5197L45.052 12.6363L45.0821 13.3585V15.8112H44.1643ZM51.9119 15.8112L53.048 12.1999H50.8511V10.5222H51.8292V11.3046H54.1163V12.0795L52.9351 15.8112H51.9119ZM55.6381 15.8563C55.3447 15.8563 55.0438 15.8187 54.8331 15.7811L54.946 14.9234C55.119 14.9535 55.3297 14.9761 55.5177 14.9761C55.8187 14.9761 55.9917 14.8482 55.9917 14.4043V12.1999H55.0137V11.3046H57.8274C59.4751 11.3046 59.9791 11.7861 59.9791 13.2983V15.8112H58.9785V13.3134C58.9785 12.3654 58.7679 12.1999 57.9252 12.1999H56.9999V14.5171C56.9999 15.5027 56.5108 15.8563 55.6381 15.8563Z" fill="black"/>
<path id="Vector 42" d="M10.9541 66.1322L68.0763 67.5352H77.8973L115.578 81.5653" stroke="#7E7E7E" stroke-width="1.3679"/>
<path id="Vector 43" d="M77.1426 126.113L80.6561 120.022L85.0579 109.934L88.9094 97.2793L91.8342 56.6293L95.0055 47.2246L101.129 36.0702L114.034 20.4321" stroke="#E6E6E6" stroke-width="4.1037"/>
<path id="Vector 41" d="M9.15723 49.2849H29.4353L79.9099 30.7702L115.837 6.96545" stroke="#7E7E7E" stroke-width="1.3679"/>
<path id="Vector 40" d="M9.10493 -17.2156L6.72265 31.5606L10.9948 66.1752V85.0739L16.0986 89.6833L18.5963 99.0264L24.7017 125.298" stroke="#7E7E7E" stroke-width="0.68395"/>
<path id="Vector 37" d="M43.0117 126.352L47.0077 109.52L50.3982 99.2275L61.5386 83.4857L77.6436 43.1627L84.5458 31.0535L88.4207 21.1242L92.5377 14.1008L98.3501 -17.2616" stroke="#7E7E7E" stroke-width="0.68395"/>
<path id="Vector 38" d="M70.9854 125.318L73.3231 122.201L78.6035 112.18L83.1969 97.2272L85.8357 59.2095L88.4744 48.068L93.1656 38.7836L97.5635 32.5287L108.607 19.8235L113.201 12.5914" stroke="#7E7E7E" stroke-width="1.3679"/>
<path id="Vector 39" d="M79.8418 125.705L82.5929 121.67L86.9946 111.583L90.8462 98.9277L93.7709 58.2778L96.9423 48.873L103.066 37.7187L115.97 22.0806" stroke="#7E7E7E" stroke-width="1.3679"/>
<path id="Vector" d="M52.2717 34.1973C46.4316 34.1973 42.6738 38.8473 42.6738 44.5882C42.6738 51.1611 47.8692 53.5248 51.0816 56.1101C51.7317 56.8153 52.8116 56.8153 53.4617 56.1101C56.5301 53.6432 61.8695 51.1611 61.8695 44.5882C61.8695 38.8473 58.1118 34.1973 52.2717 34.1973Z" fill="#69D0E2"/>
</g>
</g>
</g>
</g>
<defs>
<filter id="filter0_d_484_571" x="-261.347" y="-602" width="415" height="810" filterUnits="userSpaceOnUse" color-interpolation-filters="sRGB">
<feFlood flood-opacity="0" result="BackgroundImageFix"/>
<feColorMatrix in="SourceAlpha" type="matrix" values="0 0 0 0 0 0 0 0 0 0 0 0 0 0 0 0 0 0 127 0" result="hardAlpha"/>
<feOffset/>
<feGaussianBlur stdDeviation="10"/>
<feComposite in2="hardAlpha" operator="out"/>
<feColorMatrix type="matrix" values="0 0 0 0 0 0 0 0 0 0 0 0 0 0 0 0 0 0 0.12 0"/>
<feBlend mode="normal" in2="BackgroundImageFix" result="effect1_dropShadow_484_571"/>
<feBlend mode="normal" in="SourceGraphic" in2="effect1_dropShadow_484_571" result="shape"/>
</filter>
<clipPath id="clip0_484_571">
<rect width="109.09" height="109.09" rx="0" fill="white"/>
</clipPath>
</defs>
</svg>
