<svg width="110" height="110" viewBox="0 0 110 110" fill="none" xmlns="http://www.w3.org/2000/svg">
<rect width="110" height="110" fill="#F5F5F5"/>
<g id="1">
<path d="M-1632.35 -797.5C-1632.35 -798.605 -1631.45 -799.5 -1630.35 -799.5H6126.65C6127.76 -799.5 6128.65 -798.605 6128.65 -797.5V403.5C6128.65 404.605 6127.76 405.5 6126.65 405.5H-1630.35C-1631.45 405.5 -1632.35 404.605 -1632.35 403.5V-797.5Z" fill="#F5F5F5"/>
<path d="M-1630.35 -799.5V-774.5H6126.65V-799.5V-824.5H-1630.35V-799.5ZM6128.65 -797.5H6103.65V403.5H6128.65H6153.65V-797.5H6128.65ZM6126.65 405.5V380.5H-1630.35V405.5V430.5H6126.65V405.5ZM-1632.35 403.5H-1607.35V-797.5H-1632.35H-1657.35V403.5H-1632.35ZM-1630.35 405.5V380.5C-1617.64 380.5 -1607.35 390.801 -1607.35 403.5H-1632.35H-1657.35C-1657.35 418.408 -1645.26 430.5 -1630.35 430.5V405.5ZM6128.65 403.5H6103.65C6103.65 390.797 6113.95 380.5 6126.65 380.5V405.5V430.5C6141.56 430.5 6153.65 418.412 6153.65 403.5H6128.65ZM6126.65 -799.5V-774.5C6113.95 -774.5 6103.65 -784.801 6103.65 -797.5H6128.65H6153.65C6153.65 -812.408 6141.57 -824.5 6126.65 -824.5V-799.5ZM-1630.35 -799.5V-824.5C-1645.26 -824.5 -1657.35 -812.412 -1657.35 -797.5H-1632.35H-1607.35C-1607.35 -784.797 -1617.64 -774.5 -1630.35 -774.5V-799.5Z" fill="#FF0000"/>
<g id="Storyboard - Frame 123" filter="url(#filter0_d_484_571)">
<rect width="375" height="770" transform="translate(-241.347 -582)" fill="white"/>
<g id="Frame 1984078658">
<g clip-path="url(#clip0_484_571)">
<rect width="109.09" height="109.09" rx="0" fill="white"/>
<rect id="Rectangle 10313" x="-19.8071" y="-36.8112" width="141.864" height="169.03" fill="#F4F4F4"/>
<path id="Vector 31" d="M89.0252 113.691L88.2654 117.078H111.346L110.301 54.9419L106.868 55.5558L105.194 54.6907L104.915 56.0023L101.706 57.4254L100.311 56.979V55.5558L96.9341 54.6907L94.1715 55.6953L90.5996 53.2118L88.5679 53.4987L84.3133 50.0765L76.4515 46.1919L72.5134 52.8513L71.3308 51.6555L69.1772 52.1623V55.3718L72.5134 62.5509L80.2414 67.1117L77.3274 70.2789L82.9017 73.3195L86.3223 79.0627L83.3662 84.257L85.9 86.0729L85.6044 87.8465L82.6483 86.5796H80.0302L83.9577 95.1523L86.8293 95.9969L88.603 99.4176L87.8429 101.74V103.598L86.8293 104.696L86.6181 108.455L85.6046 109.848L86.6181 112.593L89.0252 113.691Z" fill="#DCDCDC"/>
<path id="Vector 29" d="M13.811 -28.09L16.7412 -23.4769L16.1357 -18.9967L15.167 -14.3954L18.1941 -4.46635L24.3695 4.49402L27.7599 13.6966L38.8999 22.778L50.5241 37.4295L55.0043 43.9681L58.3947 51.3544L61.1797 54.1393L71.2299 61.2834L77.8896 64.916L82.0065 68.7908L83.4596 71.3336L85.6391 73.0288L95.8103 75.6927L99.4429 77.1457L104.529 82.2313L109.614 83.5633" stroke="#7E7E7E" stroke-width="1.3679"/>
<path id="Vector 30" d="M-2.01025 85.3464L2.16959 87.3134L8.80819 90.7556L28.7239 87.3134L66.6014 90.2039L74.6908 89.5435L81.8723 90.2039H92.7682L102.426 89.0483L110.35 85.5813" stroke="#7E7E7E" stroke-width="1.3679"/>
<path id="Vector" d="M41.8566 20.0421C36.0165 20.0421 32.2588 24.6922 32.2588 30.4331C32.2588 37.0059 37.4541 39.3697 40.6666 41.9549C41.3167 42.6602 42.3966 42.6602 43.0467 41.9549C46.1151 39.488 51.4545 37.0059 51.4545 30.4331C51.4545 24.6922 47.6967 20.0421 41.8566 20.0421Z" fill="#FBC30A"/>
<path id="&#215;&#145;&#215;&#144;&#215;&#168; &#215;&#169;&#215;&#145;&#215;&#162;" d="M82.9024 49.7208V45.8928C82.9024 44.3448 82.3264 43.9608 80.9344 43.9608H79.1824V42.5328H81.0904C83.6464 42.5328 84.5104 43.3968 84.5104 45.8448V49.7208H82.9024ZM86.6094 49.7208V42.5328H88.0854L90.6414 45.6048C91.3134 45.4008 91.7334 44.8848 91.7334 43.8888V42.5328H93.3414V43.8288C93.3414 45.3888 92.3814 46.3968 91.3974 46.6368L93.8574 49.7208H91.9614L88.0254 44.6568L88.0734 45.8088V49.7208H86.6094ZM95.1318 49.7208V48.3048H98.8518V45.7608C98.8518 44.2608 98.2878 43.9608 97.0998 43.9608H95.1318V42.5328H97.3038C99.5958 42.5328 100.448 43.3368 100.448 45.7368V48.3048H101.48V49.7208H95.1318ZM77.9179 60.7208V59.3048H79.8619L77.6659 53.5328H79.3939L81.4099 59.0888C82.6099 58.6688 83.0539 57.6128 83.0539 55.7648V53.5328H84.6259V55.6928C84.6259 58.9328 83.1619 60.7208 79.9219 60.7208H77.9179ZM86.3432 60.7208V59.3048H90.0632V56.7608C90.0632 55.2608 89.4992 54.9608 88.3112 54.9608H86.3432V53.5328H88.5152C90.8072 53.5328 91.6592 54.3368 91.6592 56.7368V59.3048H92.6912V60.7208H86.3432ZM96.843 57.4808C96.303 57.4808 95.859 57.3488 95.547 57.0848C95.763 58.5128 96.783 59.3768 98.175 59.3768C99.783 59.3768 100.875 58.1888 100.875 56.4848V53.5328H102.471V56.4608C102.471 59.0288 100.731 60.8408 98.211 60.8408C95.715 60.8408 93.963 59.0528 93.963 56.4608V53.5328H95.571V55.8008C95.751 56.1128 96.123 56.2808 96.603 56.2808C97.311 56.2808 97.683 55.8248 97.683 55.0448V53.5328H99.111V55.0568C99.111 56.5568 98.235 57.4808 96.843 57.4808Z" fill="black"/>
</g>
</g>
</g>
</g>
<defs>
<filter id="filter0_d_484_571" x="-261.347" y="-602" width="415" height="810" filterUnits="userSpaceOnUse" color-interpolation-filters="sRGB">
<feFlood flood-opacity="0" result="BackgroundImageFix"/>
<feColorMatrix in="SourceAlpha" type="matrix" values="0 0 0 0 0 0 0 0 0 0 0 0 0 0 0 0 0 0 127 0" result="hardAlpha"/>
<feOffset/>
<feGaussianBlur stdDeviation="10"/>
<feComposite in2="hardAlpha" operator="out"/>
<feColorMatrix type="matrix" values="0 0 0 0 0 0 0 0 0 0 0 0 0 0 0 0 0 0 0.12 0"/>
<feBlend mode="normal" in2="BackgroundImageFix" result="effect1_dropShadow_484_571"/>
<feBlend mode="normal" in="SourceGraphic" in2="effect1_dropShadow_484_571" result="shape"/>
</filter>
<clipPath id="clip0_484_571">
<rect width="109.09" height="109.09" rx="0" fill="white"/>
</clipPath>
</defs>
</svg>
